<?xml version="1.0" encoding="utf-8"?>
<!-- Generator: Adobe Illustrator 18.0.0, SVG Export Plug-In . SVG Version: 6.00 Build 0)  -->
<!DOCTYPE svg PUBLIC "-//W3C//DTD SVG 1.1//EN" "http://www.w3.org/Graphics/SVG/1.1/DTD/svg11.dtd">
<svg version="1.1" id="Capa_1" xmlns="http://www.w3.org/2000/svg" xmlns:xlink="http://www.w3.org/1999/xlink" x="0px" y="0px"
	 viewBox="0 0 1080 374.6" enable-background="new 0 0 1080 374.6" xml:space="preserve">
<g>
	<path fill="#010002" d="M163.6,178.3h34.7v48.4c1.1,24.2-12.4,38.1-38.3,38.1c-25.9,0-39.4-13.8-39.8-38.1V148
		c0.4-24.2,13.9-38.1,39.8-38.1c26,0,39.4,13.8,38.3,38.1v13h-23.2v-16.2c0-10.8-5-14.9-13-14.9c-8,0-13,4.1-13,14.9v81.8
		c0,10.8,5,14.7,13,14.7c8,0,13-3.9,13-14.7v-27.9h-11.6V178.3z"/>
	<path fill="#010002" d="M210,147.6c0-24.5,14.3-38.5,40.5-38.5c26.2,0,40.5,14,40.5,38.5v79.5c0,24.5-14.3,38.4-40.5,38.4
		c-26.2,0-40.5-14-40.5-38.4V147.6z M238.9,226.2c0,10.3,5,14.2,13,14.2s13-3.9,13-14.2v-77.8c0-10.3-5-14.2-13-14.2
		s-13,3.9-13,14.2V226.2z"/>
	<polygon fill="#010002" points="302.6,111.7 328.7,111.7 328.7,242 372.1,242 372.1,262.3 302.6,262.3 	"/>
	<path fill="#010002" d="M383.7,111.7h41.7c26.4,0,39.3,13.1,39.3,37.2v76.1c0,24.1-12.9,37.2-39.3,37.2h-41.7V111.7z M409.7,134.9
		V242h15.2c8.6,0,13.7-3.9,13.7-14.6v-78c0-10.7-5.2-14.6-13.7-14.6H409.7z"/>
	<polygon fill="#010002" points="502.4,175.4 540,175.4 540,198.6 502.4,198.6 502.4,242 548.7,242 548.7,262.3 476.3,262.3 
		476.3,111.7 548.7,111.7 548.7,132 502.4,132 	"/>
	<polygon fill="#010002" points="583.4,153.2 583.4,262.3 560.3,262.3 560.3,111.7 593.7,111.7 621.1,201.8 621.1,111.7 
		644.2,111.7 644.2,262.3 616.7,262.3 	"/>
	<path fill="#010002" d="M736.9,146.4v4.8c0,15.6-5.8,25.5-18.7,30.5c15.5,5,21.6,16.4,21.6,32.4v12.3c0,23.4-15,35.9-43.9,35.9
		h-37.1V111.7h39.4C725.2,111.7,736.9,123.1,736.9,146.4 M684.8,132v40.5H695c9.8,0,15.8-3.9,15.8-16.2v-8.5
		c0-11-4.1-15.8-13.4-15.8H684.8z M684.8,195.7V242H700c8.9,0,13.8-3.7,13.8-14.9V214c0-14-5.1-18.3-17.1-18.3H684.8z"/>
	<rect x="751.3" y="111.7" fill="#010002" width="26.1" height="150.5"/>
	<polygon fill="#010002" points="826,202.3 817.9,216 817.9,262.3 791.9,262.3 791.9,111.7 817.9,111.7 817.9,177.3 852,111.7 
		878.1,111.7 841.9,178.8 878.1,262.3 851.3,262.3 	"/>
	<polygon fill="#010002" points="913.5,175.4 951.1,175.4 951.1,198.6 913.5,198.6 913.5,242 959.8,242 959.8,262.3 887.4,262.3 
		887.4,111.7 959.8,111.7 959.8,132 913.5,132 	"/>
</g>
</svg>
