<svg width="1074" height="156" viewBox="0 0 1074 156" fill="none" xmlns="http://www.w3.org/2000/svg">
<path d="M746.173 97.3467C748.491 99.9956 750.479 102.644 752.135 104.962C757.434 111.584 762.402 117.876 767.701 124.167C773 130.789 778.63 137.742 784.261 144.696C786.579 147.344 788.898 149.993 790.885 152.642C791.216 152.973 791.547 153.304 791.216 153.636C790.885 153.967 790.554 153.967 790.223 153.967C770.351 154.629 750.81 154.298 731.269 154.298C724.645 154.298 719.014 151.98 713.715 147.676C710.072 144.696 707.423 140.722 704.442 137.08C700.136 131.782 696.162 126.816 691.856 121.518C687.219 115.558 682.583 109.929 677.615 103.969C676.621 102.976 675.959 101.651 674.634 100.327C672.315 97.6778 669.335 96.3533 666.023 96.3533C658.074 96.6844 649.794 96.6845 641.845 96.6845C638.864 96.6845 635.552 96.3533 632.571 96.3533C629.922 96.3533 627.272 97.0156 625.285 98.6711C623.96 99.6645 622.966 101.32 622.304 102.976C616.674 113.24 611.043 123.173 605.082 133.438C603.426 136.749 601.438 140.06 599.12 143.371C594.483 149.993 588.191 153.636 580.242 153.967C575.605 154.298 571.299 153.967 566.662 154.298C562.688 154.629 558.382 154.629 554.408 154.629C545.797 154.298 537.517 154.629 529.237 154.298C528.574 154.298 527.581 153.967 526.918 153.967C525.594 153.967 525.925 153.304 526.256 152.311C527.912 148.338 530.23 144.696 532.549 140.722C537.517 132.113 542.485 123.504 547.453 115.227C554.077 103.638 561.032 92.0489 567.656 80.46C576.267 65.2289 585.21 49.9978 594.152 34.7667C599.782 25.1644 605.082 15.5622 610.712 5.96C613.03 1.98666 616.674 0 620.979 0C625.616 0 629.59 0 634.227 0C649.462 0.331111 664.698 0.331106 679.933 0.331106C692.187 -5.05729e-06 704.442 -5.05729e-06 716.696 0.331106C732.262 0.662217 747.829 0.331107 763.064 0.662219C767.038 0.662219 771.013 0.66222 775.319 0.993331C780.618 1.32444 785.586 1.65555 790.885 2.31777C798.171 3.31111 805.127 4.63555 812.082 6.95333C819.699 9.27111 826.323 13.2444 830.629 20.1978C833.941 25.8267 835.266 31.7867 834.603 38.0778C833.61 47.68 828.973 55.9578 823.342 63.9044C816.387 73.5067 807.776 80.7911 797.178 85.7578C789.229 89.7311 780.618 92.38 771.675 94.0356C765.714 95.0289 760.083 95.6911 754.122 96.3533C751.803 96.3533 749.154 96.6844 746.173 97.3467ZM679.933 68.8711C683.576 68.54 687.882 68.8711 692.519 68.54C698.48 68.2089 704.442 68.2089 710.403 68.2089C712.39 68.2089 714.709 67.8778 716.696 67.5467C722.326 66.8844 727.957 65.2289 733.256 63.5733C742.53 61.2556 749.485 55.9578 754.784 48.0111C756.44 45.6933 757.102 42.7133 756.771 39.7333C756.109 36.0911 753.791 33.7733 750.81 32.4489C743.523 28.8067 735.575 27.4822 727.295 27.1511C721.995 26.82 716.696 26.82 711.397 26.82C695.499 26.4889 679.602 26.82 663.704 26.82C660.061 26.82 657.08 28.4756 655.424 31.4556C654.762 32.78 653.768 34.1045 653.106 35.4289C649.131 42.3822 645.157 49.3356 641.183 56.2889C639.527 59.6 637.208 62.9111 635.883 66.5533C635.552 67.2156 635.552 67.5467 636.546 67.5467C637.871 67.5467 638.864 67.8778 640.52 67.8778C651.45 67.8778 662.048 67.8778 672.978 68.2089C674.303 68.8711 676.621 68.8711 679.933 68.8711Z" fill="#C0C0C0"/>
<path d="M135.771 153.304C138.09 150.987 140.408 148.669 143.058 147.013C149.35 142.047 155.643 137.08 161.605 132.113C168.56 126.484 175.515 121.187 182.47 115.558C188.432 110.591 194.725 105.624 201.018 100.658C207.973 95.0289 214.597 89.7311 221.552 84.1022C227.845 79.1356 233.806 74.1689 240.099 69.2022C247.054 63.5733 254.01 57.9445 260.965 52.6467C267.589 47.3489 273.882 42.3822 280.506 37.0845C287.13 31.7867 294.085 26.1578 300.709 20.86C306.67 15.8933 312.963 10.9267 319.256 6.29112C320.912 4.63557 322.899 3.31112 325.218 1.98667C326.874 0.993341 329.192 0.662231 331.179 0.662231C351.714 0.662231 371.917 0.662231 392.12 0.662231C394.107 0.662231 396.094 0.993346 398.082 1.65557C402.056 3.31112 404.374 6.62223 405.037 10.9267C405.368 14.9 405.699 18.5422 406.03 22.5156C406.362 27.1511 407.024 31.4556 407.024 36.0911C407.355 39.4022 407.355 43.0445 408.018 46.3556C408.349 50.9911 409.011 55.2956 409.011 59.9311C409.342 63.2422 409.342 66.5534 410.005 70.1956C410.336 74.8311 410.998 79.1356 410.998 83.7711C411.33 86.0889 411.33 88.4067 411.33 90.7244C411.661 95.36 412.323 99.9956 412.323 104.962C412.654 108.273 412.654 111.584 413.317 115.227C413.648 119.862 414.31 124.167 414.31 128.802C414.642 132.113 414.642 135.424 415.304 139.067C415.635 143.04 415.966 146.682 416.298 150.656C416.629 153.636 415.635 155.291 412.323 155.291C396.757 155.291 381.19 155.291 365.955 155.291C364.299 155.291 362.312 154.96 360.656 154.298C356.682 152.642 355.357 149.662 354.694 145.689C354.032 141.716 353.701 137.411 353.37 133.438C353.038 131.451 353.038 129.133 352.707 127.147C352.376 126.153 352.045 126.153 351.051 126.153C343.765 125.822 336.81 125.822 329.854 125.822C305.346 125.822 280.837 125.822 256.328 125.822C251.691 125.822 248.048 126.816 244.405 129.796C236.456 135.756 228.838 142.047 220.89 148.338C214.928 152.973 208.635 155.622 201.018 155.622C181.808 155.622 162.93 155.622 144.051 155.622C141.07 153.967 138.752 153.636 135.771 153.304ZM287.792 93.7045C288.123 94.0356 288.123 94.0356 288.454 94.0356C308.658 94.0356 328.861 94.0356 349.395 94.0356C350.389 94.0356 350.389 93.7045 350.389 93.0422C350.058 90.0622 350.058 87.0822 349.726 84.4333C349.395 81.1222 349.395 77.8111 348.733 74.1689C348.402 69.5333 347.739 65.2289 347.739 60.5933C347.408 57.2822 347.077 53.9711 345.421 50.66C345.09 50.3289 345.09 49.9978 344.427 50.3289C342.771 50.9911 340.453 51.3222 339.128 52.6467C336.81 54.3022 334.822 55.9578 332.504 57.6133C326.211 62.58 319.918 67.5467 313.626 72.5133C306.67 78.1422 299.715 83.7711 292.76 89.4C290.773 90.3933 289.448 92.0489 287.792 93.7045Z" fill="#C0C0C0"/>
<path d="M903.824 153.967C899.85 153.967 895.875 154.298 891.901 153.967C885.277 153.636 878.322 153.636 871.367 152.973C866.067 152.642 861.099 151.98 856.131 151.318C848.845 150.324 841.89 148.669 834.935 146.02C831.954 145.027 828.973 143.702 826.323 142.047C820.362 138.736 817.05 134.1 816.387 127.147C816.056 123.173 816.719 119.862 817.712 116.22C819.368 110.26 822.349 104.3 824.999 98.34C832.285 82.7778 840.896 67.8778 850.501 53.9711C855.138 47.3489 859.775 40.3956 864.743 34.1045C871.367 25.8267 879.647 19.2045 888.92 13.5756C897.531 8.6089 907.136 5.6289 916.741 4.30446C921.378 3.64223 926.015 3.31112 930.651 2.6489C935.951 1.98668 941.581 1.65557 946.88 1.32446C949.861 0.993346 952.842 0.993345 955.491 0.993345C962.447 0.662234 969.402 0.662232 976.357 0.33112C979.669 0.33112 982.981 9.34303e-06 986.624 0.33112C990.599 0.662232 994.573 0.331122 998.879 0.662233C1004.18 0.993344 1009.15 0.993346 1014.44 1.32446C1019.74 1.65557 1025.37 2.31779 1030.67 2.6489C1035.97 3.31112 1041.27 3.64224 1046.24 4.63557C1052.2 5.96001 1058.16 7.28445 1063.46 10.2645C1067.44 12.5822 1070.75 15.5622 1072.74 19.8667C1073.07 20.1978 1073.07 20.1978 1073.07 20.86C1073.07 21.1911 1073.07 21.1911 1073.07 21.5222C1073.07 24.5022 1073.4 28.1445 1072.74 31.1245C1072.07 34.1045 1070.09 37.0845 1068.76 39.7333C1066.11 45.3622 1063.13 51.3222 1060.48 56.9511C1054.19 69.2022 1047.56 81.4533 1039.95 93.0422C1034.65 100.989 1029.02 109.267 1023.39 117.213C1016.43 126.484 1007.82 134.1 997.554 139.729C987.949 145.358 977.351 148.669 966.421 150.324C961.784 150.987 957.81 151.318 953.173 151.98C946.549 152.642 940.256 152.973 933.632 153.636C928.664 153.967 923.365 153.967 918.728 154.298C914.091 153.967 908.792 153.967 903.824 153.967ZM921.709 125.822C925.683 126.153 929.658 125.491 933.301 125.16C943.899 123.504 953.173 118.538 960.791 111.253C965.427 106.949 968.739 101.982 972.051 97.0156C980.663 84.4333 988.28 71.1889 994.242 57.2822C995.898 52.9778 998.216 48.6733 999.541 44.3689C1000.53 41.3889 1000.53 38.4089 999.541 35.4289C998.216 31.4556 994.904 29.8 991.261 28.8067C987.287 27.8133 982.65 27.4822 978.675 27.4822C975.032 27.1511 971.389 27.4822 967.746 27.4822C962.447 27.4822 957.479 27.4822 952.179 28.4756C943.237 30.1311 935.619 34.1045 928.995 40.3956C926.015 43.3756 923.034 47.0178 920.384 50.66C911.111 64.2356 901.837 78.1422 894.882 93.7045C891.901 99.9956 889.583 106.618 887.264 113.24C886.602 115.558 886.271 117.876 886.933 120.193C887.927 123.173 890.907 124.498 893.557 125.16C899.519 126.484 905.48 126.484 911.442 126.816C915.416 126.484 918.397 125.822 921.709 125.822Z" fill="#C0C0C0"/>
<path d="M286.798 0.662218C284.811 2.31777 283.155 3.64222 281.499 5.29777C275.538 10.2644 269.245 14.9 263.283 19.8667C255.997 25.4956 249.042 31.4556 242.086 37.0844C234.8 43.0444 227.514 48.6733 220.227 54.6333C212.941 60.5933 205.323 66.5533 198.037 72.5133C191.082 78.1422 184.126 83.44 177.502 89.0689C170.216 95.0289 162.93 100.658 155.643 106.618C147.694 113.24 139.414 119.531 131.466 125.822C123.848 131.782 116.23 138.073 108.282 144.364C105.963 146.02 103.645 148.007 101.326 149.662C98.3456 151.98 94.7024 153.636 91.0592 153.636C69.2001 153.967 47.3408 153.967 25.1504 153.967C21.5072 153.967 18.1952 152.973 15.5456 149.993C13.5584 147.676 12.5649 145.027 12.5649 142.047C12.2337 136.749 11.5713 131.782 11.2401 126.816C10.9089 120.856 10.2465 114.896 9.58406 108.936C9.25286 102.976 8.59046 96.6844 7.92806 90.7244C7.59686 85.7578 6.93445 80.7911 6.60325 75.8244C6.27205 69.5333 5.60965 63.5733 4.94726 57.2822C4.61606 52.3156 3.95365 47.3489 3.62245 42.3822C3.29125 36.4222 2.62885 30.4622 1.96645 24.5022C1.63525 19.8667 0.972845 14.9 0.641645 10.2644C0.310445 8.60888 0.31045 7.28444 0.31045 5.29777C-0.0207498 0.662217 1.96644 0 5.60964 0C9.58404 0 13.2272 0.331106 17.2016 0.331106C28.7936 0.331106 40.7169 -5.05729e-06 52.3089 0.331106C60.2577 0.662217 63.9008 4.96666 64.5632 12.2511C64.8944 16.5556 65.5569 20.5289 65.5569 24.8333C65.8881 27.8133 65.888 31.1244 66.5504 34.1044C66.8816 38.4089 67.5441 42.3822 67.5441 46.6867C67.8753 49.6667 67.8752 52.6467 68.5376 55.9578C68.8688 60.5933 69.5312 64.8978 69.5312 69.5333C69.8624 72.5133 69.8625 75.8244 70.5249 78.8044C70.8561 83.1089 71.5184 87.0822 71.5184 91.3867C71.8496 95.0289 72.1809 98.34 72.5121 101.982C72.5121 102.644 72.8432 103.307 72.8432 103.969C75.8241 102.313 78.8048 99.9956 81.4544 97.6778C87.7472 92.7111 94.0401 87.7444 100.333 82.7778C107.619 77.1489 114.574 71.52 121.53 65.8911C128.154 60.5933 135.109 54.9644 141.733 49.9978C148.357 44.7 154.65 39.7333 161.274 34.4355C167.898 29.1378 174.853 23.5089 181.477 18.2111C185.782 14.9 190.088 10.9267 194.725 7.94667C201.349 3.97333 207.973 1.32444 215.59 0.662218C220.227 -3.79913e-06 224.864 0.331106 229.17 0.331106C247.054 0.331106 264.939 0.331106 282.493 0.331106C283.818 0.331106 285.142 0.331107 286.798 0.662218Z" fill="#C0C0C0"/>
<path d="M549.44 0.331116C558.051 0.331116 566.331 0.331116 574.942 0.331116C575.936 0.331116 576.598 0.662228 577.261 0.662228C578.586 0.662228 578.254 0.993338 577.923 1.98667C576.598 4.96667 574.942 7.61556 573.286 10.2645C568.65 17.88 564.344 25.8267 559.707 33.4422C555.402 40.7267 551.096 48.0111 546.79 55.2956C542.154 63.5734 537.186 71.8511 532.549 80.1289C525.594 92.0489 518.638 103.969 511.683 115.889C507.046 124.167 502.41 132.444 497.442 140.722C493.467 147.344 488.168 151.649 480.882 153.636C479.226 153.967 477.238 154.298 475.582 154.298C459.685 154.298 443.787 154.298 427.89 154.298C426.565 154.298 425.24 153.967 423.915 153.967C422.922 153.967 422.922 153.636 423.253 152.973C424.909 149.331 426.896 146.351 428.552 142.709C433.52 134.1 438.488 125.491 443.456 117.213C449.749 106.287 456.373 95.36 462.666 84.4333C470.614 70.8578 478.232 57.6133 486.181 44.3689C492.474 33.7733 498.435 23.1778 504.728 12.5822C508.702 5.96001 514.664 1.65556 522.282 0.993341C524.6 0.662229 526.918 0.993341 529.237 0.993341C535.861 0.331118 542.485 0.331116 549.44 0.331116Z" fill="#C0C0C0"/>
</svg>
