<?xml version="1.0" encoding="utf-8"?>
<!-- Generator: Adobe Illustrator 26.0.0, SVG Export Plug-In . SVG Version: 6.00 Build 0)  -->
<svg version="1.1" id="Capa_1" xmlns="http://www.w3.org/2000/svg" xmlns:xlink="http://www.w3.org/1999/xlink" x="0px" y="0px"
	 viewBox="0 0 500 90" style="enable-background:new 0 0 500 90;" xml:space="preserve">
<style type="text/css">
	.st0{fill:#BFBFBF;}
</style>
<g>
	<path class="st0" d="M67,55.7c3.4,2,6.8,4,10.2,6c1.9,1.1,3.8,2.1,5.7,3.2c2.8,1.6,2.9,1.7,5.3-0.5c5.3-4.7,10.5-9.4,15.7-14
		c6.3-5.5,12.6-10.9,18.8-16.5c3.2-2.9,6.4-6,10.2-8.1c4.4-2.5,9.1-3.9,14.2-4c4.9-0.1,9.8,0,14.7-0.1c1.4,0,1.8,0.6,1.9,1.8
		c0.2,2.8,0.5,5.6,0.7,8.4c0.5,5.5,1.1,11,1.6,16.5c0.4,3.9,0.7,7.8,1.1,11.7c0.2,2.3,0.4,4.6,0.7,6.9c0.1,1,0,1.4-1.2,1.4
		c-4.8-0.1-9.6,0-14.4,0c-1.2,0-1.7-0.5-1.7-1.7c0-1.2,0.6-2.8-0.2-3.6c-0.9-0.8-2.5-0.3-3.8-0.3c-12.3,0-24.6,0-36.9-0.1
		c-1.2,0-2.1,0.3-3,1.2c-1.2,1.3-2.7,2.4-3.9,3.7c-0.5,0.5-1,0.6-1.7,0.6c-11.2,0-22.5,0-33.7,0c-2.5,0-4.2-1.8-6.2-2.9
		c-5-2.7-9.9-5.6-14.9-8.4c-2-1.1-2-1.1-1-3.2c1.3-3,3.5-5.5,4.4-8.7c0.2-0.7,1.1-0.8,1.9-0.8c6.9,0,13.8-0.1,20.7,0.1
		c3.9,0.1,6.8-1.1,8.3-5c0.5-1.2,1.3-2.4,1.7-3.7c0.4-1.6-0.1-2.7-1.7-3.1c-0.6-0.2-1.2-0.2-1.8-0.2c-8.4,0-16.7,0-25.1,0
		c-3.6,0-6.4,1.5-8,4.7c-3.2,6-6.2,12.1-9.2,18.2c-2,4-4.1,8-6,12.1c-0.4,0.8-0.8,0.9-1.5,0.9c-4.9,0-9.7,0-14.6,0
		c-1.2,0-1.5-0.3-0.9-1.4c2.2-4.1,4.3-8.1,6.4-12.3c3.2-6.3,6.2-12.7,9.4-19c1.3-2.6,2.5-5.3,4.3-7.6c3-3.9,7.3-5.5,12-5.9
		c11.9-1.1,23.9-0.2,35.9-0.5c3.3-0.1,6.6,0.3,9.8,1.2c2,0.6,3.9,1.4,5.6,2.7c3.1,2.3,3.8,5.6,2.1,9.5c-1.8,4.1-3.7,8.1-5.7,12.1
		c-1.5,2.8-3.9,4.6-6.8,6c-3.7,1.7-7.5,2.5-11.6,2.4c-2.5-0.1-5.1,0-7.6,0C67.1,55.4,67,55.5,67,55.7z M120.9,51.3
		c0,0.2,0.1,0.3,0.1,0.5c9.2,0,18.3,0,27.5,0c1,0,0.9-0.5,0.8-1.2c-0.5-5.8-1-11.6-1.5-17.3c-0.1-0.9-0.4-1.1-1.2-1.1
		c-3.1,0.1-5.6,1.5-7.9,3.3c-1.9,1.6-3.7,3.3-5.6,4.9C129.1,44,125,47.7,120.9,51.3z"/>
	<path class="st0" d="M414.5,22c-1.9,3.6-3.7,6.9-5.3,10.2c-0.5,1-1.1,0.8-1.8,0.8c-10.1,0-20.2,0-30.3,0c-4.8,0-9.6,0-14.4-0.1
		c-3.9,0-6.8,1.4-8.5,5.1c-2.4,5.2-5.1,10.2-7.7,15.3c-1.1,2.1-0.5,3.1,1.8,3.6c1.1,0.2,2.1,0.1,3.2,0.1c9,0,18,0,26.9,0
		c1.2,0,1.8-0.4,2.3-1.4c0.7-1.6,1.6-3.2,2.5-5c-7.8,0-15.4,0-23.3,0c1.8-3.6,3.5-6.9,5.2-10.2c0.3-0.5,0.7-0.5,1.1-0.5
		c12.9,0,25.8,0,38.6,0c0,0,0.1,0,0.3,0.1c-1.7,3.4-3.4,6.7-5.1,10.1c-2.9,5.8-5.8,11.5-8.7,17.3c-0.4,0.8-0.8,1-1.6,1
		c-16.8,0-33.7,0-50.5-0.1c-2.6,0-5.2,0.1-7.9-0.6c-5.4-1.5-6.1-5.4-3.9-9.7c1.8-3.5,3.6-7,5.4-10.5c3-5.8,5.4-12,9-17.5
		c3-4.7,7.6-6.8,12.8-7.6c5.8-0.9,11.7-0.4,17.6-0.5c13.4-0.1,26.8,0,40.2,0C413,22,413.6,22,414.5,22z"/>
	<path class="st0" d="M314.4,22c-1.8,3.7-3.6,7.2-5.4,10.8c-0.4,0.9-1.1,0.6-1.8,0.6c-9.6,0-19.2,0-28.8,0c-4.1,0-8.2,0-12.4,0
		c-4.4,0-6.8,1.9-8,6.3c8.9,0,17.8,0,26.9,0c-0.3,1.6-1.3,2.8-1.9,4.1c-0.9,1.8-1.9,3.6-2.7,5.4c-0.5,1-1.1,1.3-2.2,1.3
		c-8.1-0.1-16.2,0-24.2,0c-1.5,0-3.3,2.4-3.3,4.3c0,1.4,0.9,2.1,2.8,2.1c10.6,0,21.2,0.2,31.9-0.1c1.8,0,3.6,0.4,5.5,0.2
		c1.9-0.2,3.9-0.1,6.1-0.1c-1.4,2.8-3,5.5-4,8.3c-1,2.6-2.5,3.2-5.2,3.1c-15-0.1-30.1-0.1-45.1,0c-2.9,0-5.7-0.3-8.4-1.4
		c-3.3-1.4-4.7-4.6-3-8.2c4.5-9.1,9.1-18.1,13.6-27.1c2.1-4.3,5.8-6.5,10.2-7.9c5-1.6,10.1-2,15.3-1.9c14.2,0,28.4,0.1,42.5,0.1
		C313.3,21.9,313.8,22,314.4,22z"/>
	<path class="st0" d="M487,22c-3.1,6.1-6,12-9,17.9c-4.6,9.1-9.2,18.2-13.8,27.3c-0.5,0.9-0.9,1.3-2,1.3c-4.9-0.1-9.7,0-14.6,0
		c-1,0-1.8,0.2-0.9-1.4c2.6-4.9,5-9.9,7.6-14.9c0.7-1.4,0.3-1.5-1-1.5c-9,0-18.1,0.1-27.1,0c-1.2,0-1.8,0.5-2.3,1.5
		c-2.6,5.2-5.2,10.3-7.8,15.4c-0.3,0.6-0.4,0.9-1.2,0.9c-5.6,0-11.2,0-16.8,0c0.3-1.8,1.2-3.2,2-4.6c4.8-9.1,9.4-18.3,13.9-27.5
		c2.2-4.5,4.5-8.9,6.7-13.4c0.3-0.6,0.8-1,1.6-1c5.5,0,11.1,0,16.8,0c-3,6-5.9,11.9-9,18.1c2.9,0,5.5,0,8.2,0c6.9,0,13.9,0,20.8,0
		c0.9,0,1.3-0.3,1.7-1.1c2.6-5.2,5.2-10.4,7.8-15.6c0.4-0.9,0.8-1.5,1.9-1.5C475.9,22,481.3,22,487,22z"/>
	<path class="st0" d="M228.5,57.3c-1.8,3.7-3.5,7.1-5.2,10.5c-0.3,0.6-0.8,0.6-1.3,0.5c-14.2-0.1-28.4,0.2-42.7-0.2
		c-1.1,0-2.2-0.2-3.3-0.5c-4.2-1.4-6.6-4.5-3.9-9.6c3.9-7.4,7.5-14.8,11.3-22.2c2.2-4.2,4.4-8.5,6.4-12.8c0.3-0.7,0.9-1.2,1.9-1.2
		c4.7,0.1,9.5,0.1,14.2,0c1.4,0,1.4,0.4,0.9,1.5c-4.9,9.6-9.7,19.3-14.6,29c-1.6,3.1-0.9,4.6,2.6,4.9c3.4,0.2,6.9,0.2,10.3,0.2
		C212.8,57.3,220.5,57.3,228.5,57.3z"/>
	<path class="st0" d="M339.4,21.9c-2.4,4.8-4.8,9.5-7.1,14.1c-5.1,10.2-10.2,20.4-15.3,30.7c-0.6,1.3-1.4,1.7-2.8,1.7
		c-4.7-0.1-9.4-0.1-14,0c-1.7,0-1.4-0.5-0.9-1.6c4.9-9.7,9.9-19.3,14.7-29.1c2.4-5,5-10,7.4-15c0.3-0.7,0.8-0.7,1.3-0.7
		C328.2,21.9,333.7,21.9,339.4,21.9z"/>
</g>
</svg>
