<svg xmlns="http://www.w3.org/2000/svg" xmlns:xlink="http://www.w3.org/1999/xlink" viewBox="0 0 473.58 473.59" version="1.0"><defs><linearGradient id="p" y2="431.39" xlink:href="#a" spreadMethod="reflect" gradientUnits="userSpaceOnUse" x2="2263.8" gradientTransform="matrix(.65578 .22337 -.06107 .17929 889.34 293.38)" y1="431.39" x1="2262.3"/><linearGradient id="a"><stop style="stop-color:#555753" offset="0"/><stop style="stop-color:#91938e" offset="1"/></linearGradient><linearGradient id="o" y2="431.39" xlink:href="#a" spreadMethod="reflect" gradientUnits="userSpaceOnUse" x2="2263.8" gradientTransform="matrix(.59996 -.34639 .0947 .16403 860.27 1598.4)" y1="431.39" x1="2262.3"/><linearGradient id="n" y2="431.39" xlink:href="#a" spreadMethod="reflect" gradientUnits="userSpaceOnUse" x2="2263.8" gradientTransform="matrix(.34639 -.59996 .16403 .0947 1365.1 2241.6)" y1="431.39" x1="2262.3"/><linearGradient id="m" y2="431.39" xlink:href="#a" spreadMethod="reflect" gradientUnits="userSpaceOnUse" x2="2263.8" gradientTransform="matrix(0 -.69278 .18941 0 2124 2546.2)" y1="431.39" x1="2262.3"/><linearGradient id="l" y2="431.39" xlink:href="#a" spreadMethod="reflect" gradientUnits="userSpaceOnUse" x2="2263.8" gradientTransform="matrix(-.34639 -.59996 .16403 -.0947 2933.4 2430.6)" y1="431.39" x1="2262.3"/><linearGradient id="k" y2="431.39" xlink:href="#a" spreadMethod="reflect" gradientUnits="userSpaceOnUse" x2="2263.8" gradientTransform="matrix(-.59996 -.34639 .0947 -.16403 3576.6 1925.7)" y1="431.39" x1="2262.3"/><linearGradient id="y" y2="431.39" xlink:href="#a" spreadMethod="reflect" gradientUnits="userSpaceOnUse" x2="2263.8" gradientTransform="matrix(-.69278 0 0 -.18941 3881.2 1166.9)" y1="431.39" x1="2262.3"/><linearGradient id="j" y2="431.39" xlink:href="#a" spreadMethod="reflect" gradientUnits="userSpaceOnUse" x2="2263.8" gradientTransform="matrix(-.59996 .34639 -.0947 -.16403 3765.6 357.44)" y1="431.39" x1="2262.3"/><linearGradient id="i" y2="431.39" xlink:href="#a" spreadMethod="reflect" gradientUnits="userSpaceOnUse" x2="2263.8" gradientTransform="matrix(-.34639 .59996 -.16403 -.0947 3260.7 -285.77)" y1="431.39" x1="2262.3"/><linearGradient id="h" y2="431.39" xlink:href="#a" spreadMethod="reflect" gradientUnits="userSpaceOnUse" x2="2263.8" gradientTransform="matrix(0 .69278 -.18941 0 2501.9 -590.37)" y1="431.39" x1="2262.3"/><linearGradient id="g" y2="431.39" xlink:href="#a" spreadMethod="reflect" gradientUnits="userSpaceOnUse" x2="2263.8" gradientTransform="matrix(.34639 .59996 -.16403 .0947 1692.5 -474.75)" y1="431.39" x1="2262.3"/><linearGradient id="f" y2="431.39" xlink:href="#a" spreadMethod="reflect" gradientUnits="userSpaceOnUse" x2="2263.8" gradientTransform="matrix(.59996 .34639 -.0947 .16403 1049.2 30.117)" y1="431.39" x1="2262.3"/><linearGradient id="e" y2="431.39" xlink:href="#a" spreadMethod="reflect" gradientUnits="userSpaceOnUse" x2="2263.8" gradientTransform="matrix(.69278 0 0 .18941 744.65 788.94)" y1="431.39" x1="2262.3"/><linearGradient id="b" y2="431.39" xlink:href="#a" spreadMethod="reflect" gradientUnits="userSpaceOnUse" x2="2263.8" gradientTransform="matrix(.67961 -.13445 .03676 .18581 737.79 1096.9)" y1="431.39" x1="2262.3"/><linearGradient id="q" y2="431.39" xlink:href="#a" spreadMethod="reflect" gradientUnits="userSpaceOnUse" x2="2263.8" gradientTransform="matrix(.45624 .52134 -.14254 .12474 1422.3 -326.71)" y1="431.39" x1="2262.3"/><linearGradient id="d" y2="431.39" xlink:href="#a" spreadMethod="reflect" gradientUnits="userSpaceOnUse" x2="2263.8" gradientTransform="matrix(.13445 .67961 -.18581 .03676 2194 -597.23)" y1="431.39" x1="2262.3"/><linearGradient id="r" y2="431.39" xlink:href="#a" spreadMethod="reflect" gradientUnits="userSpaceOnUse" x2="2263.8" gradientTransform="matrix(-.22337 .65578 -.17929 -.06107 2997.5 -445.68)" y1="431.39" x1="2262.3"/><linearGradient id="s" y2="431.39" xlink:href="#a" spreadMethod="reflect" gradientUnits="userSpaceOnUse" x2="2263.8" gradientTransform="matrix(-.52134 .45624 -.12474 -.14254 3617.6 87.318)" y1="431.39" x1="2262.3"/><linearGradient id="c" y2="431.39" xlink:href="#a" spreadMethod="reflect" gradientUnits="userSpaceOnUse" x2="2263.8" gradientTransform="matrix(-.67961 .13445 -.03676 -.18581 3888.1 858.95)" y1="431.39" x1="2262.3"/><linearGradient id="t" y2="431.39" xlink:href="#a" spreadMethod="reflect" gradientUnits="userSpaceOnUse" x2="2263.8" gradientTransform="matrix(-.65578 -.22337 .06107 -.17929 3736.5 1662.5)" y1="431.39" x1="2262.3"/><linearGradient id="u" y2="431.39" xlink:href="#a" spreadMethod="reflect" gradientUnits="userSpaceOnUse" x2="2263.8" gradientTransform="matrix(-.45624 -.52134 .14254 -.12474 3203.5 2282.6)" y1="431.39" x1="2262.3"/><linearGradient id="v" y2="431.39" xlink:href="#a" spreadMethod="reflect" gradientUnits="userSpaceOnUse" x2="2263.8" gradientTransform="matrix(-.13445 -.67961 .18581 -.03676 2431.9 2553.1)" y1="431.39" x1="2262.3"/><linearGradient id="w" y2="431.39" xlink:href="#a" spreadMethod="reflect" gradientUnits="userSpaceOnUse" x2="2263.8" gradientTransform="matrix(.22337 -.65578 .17929 .06107 1628.4 2401.5)" y1="431.39" x1="2262.3"/><linearGradient id="x" y2="431.39" xlink:href="#a" spreadMethod="reflect" gradientUnits="userSpaceOnUse" x2="2263.8" gradientTransform="matrix(.52134 -.45624 .12474 .14254 1008.3 1868.5)" y1="431.39" x1="2262.3"/><radialGradient id="B" gradientUnits="userSpaceOnUse" cy="882.66" cx="2226.4" gradientTransform="matrix(.7637 0 0 .73563 526.09 233.35)" r="133.34"><stop style="stop-color:#2e3436" offset="0"/><stop style="stop-color:#505a5e" offset=".821"/><stop style="stop-color:#2e3436" offset="1"/></radialGradient><radialGradient id="A" gradientUnits="userSpaceOnUse" cy="977.92" cx="2312.9" gradientTransform="matrix(.18225 0 0 .18278 1891.4 799.18)" r="1151.6"><stop style="stop-color:#555753" offset="0"/><stop style="stop-color:#7e807c" offset=".964"/><stop style="stop-color:#a8aaa6" offset="1"/></radialGradient><filter id="z"><feGaussianBlur stdDeviation="27.212"/></filter></defs><path style="fill-rule:evenodd;fill:url(#b)" d="m2270.3 767.66 41.6 210.46 2-.39-41.6-210.46-2 .39z" transform="translate(-2076.1 -741.13)"/><path style="fill-rule:evenodd;fill:url(#c)" d="m2355.6 1188.2-41.7-210.47-2 .39 41.7 210.48 2-.4z" transform="translate(-2076.1 -741.13)"/><path style="fill-rule:evenodd;fill:url(#d)" d="m2523.2 935.3-210.5 41.63.4 1.98 210.5-41.64-.4-1.97z" transform="translate(-2076.1 -741.13)"/><path style="fill-rule:evenodd;fill:url(#e)" d="M2311.9 763.39v214.53h2V763.39h-2z" transform="translate(-2076.1 -741.13)"/><path style="fill-rule:evenodd;fill:url(#f)" d="m2419.3 791.62-107.2 185.8 1.7 1.01 107.3-185.8-1.8-1.01z" transform="translate(-2076.1 -741.13)"/><path style="fill-rule:evenodd;fill:url(#g)" d="m2498.2 869.78-185.8 107.27 1 1.74 185.8-107.26-1-1.75z" transform="translate(-2076.1 -741.13)"/><path style="fill-rule:evenodd;fill:url(#h)" d="M2527.5 976.92h-214.6v2.01h214.6v-2.01z" transform="translate(-2076.1 -741.13)"/><path style="fill-rule:evenodd;fill:url(#i)" d="m2499.2 1084.3-185.8-107.25-1 1.74 185.8 107.31 1-1.8z" transform="translate(-2076.1 -741.13)"/><path style="fill-rule:evenodd;fill:url(#j)" d="m2421.1 1163.2-107.3-185.78-1.7 1.01 107.2 185.77 1.8-1z" transform="translate(-2076.1 -741.13)"/><path style="fill-rule:evenodd;fill:url(#k)" d="m2206.5 1164.2 107.3-185.77-1.7-1.01-107.3 185.78 1.7 1z" transform="translate(-2076.1 -741.13)"/><path style="fill-rule:evenodd;fill:url(#l)" d="m2127.6 1086.1 185.8-107.31-1-1.74-185.8 107.25 1 1.8z" transform="translate(-2076.1 -741.13)"/><path style="fill-rule:evenodd;fill:url(#m)" d="M2098.4 978.93h214.5v-2.01h-214.5v2.01z" transform="translate(-2076.1 -741.13)"/><path style="fill-rule:evenodd;fill:url(#n)" d="m2126.6 871.53 185.8 107.26 1-1.74-185.8-107.27-1 1.75z" transform="translate(-2076.1 -741.13)"/><path style="fill-rule:evenodd;fill:url(#o)" d="m2204.8 792.63 107.3 185.8 1.7-1.01-107.3-185.8-1.7 1.01z" transform="translate(-2076.1 -741.13)"/><path style="fill-rule:evenodd;fill:url(#p)" d="M2381.2 774.52 2312 977.6l1.9.65 69.2-203.08-1.9-.65z" transform="translate(-2076.1 -741.13)"/><path style="fill-rule:evenodd;fill:url(#q)" d="m2473.7 835.88-161.4 141.28 1.3 1.52L2475 837.39l-1.3-1.51z" transform="translate(-2076.1 -741.13)"/><path style="fill-rule:evenodd;fill:url(#r)" d="m2516.3 1046.1-203-69.13-.7 1.9 203.1 69.13.6-1.9z" transform="translate(-2076.1 -741.13)"/><path style="fill-rule:evenodd;fill:url(#s)" d="m2455 1138.7-141.3-161.44-1.5 1.32L2453.5 1140l1.5-1.3z" transform="translate(-2076.1 -741.13)"/><path style="fill-rule:evenodd;fill:url(#t)" d="m2244.7 1181.3 69.2-203.05-1.9-.65-69.2 203.1 1.9.6z" transform="translate(-2076.1 -741.13)"/><path style="fill-rule:evenodd;fill:url(#u)" d="m2152.2 1120 161.4-141.32-1.3-1.52-161.5 141.24 1.4 1.6z" transform="translate(-2076.1 -741.13)"/><path style="fill-rule:evenodd;fill:url(#v)" d="m2102.7 1020.5 210.4-41.59-.4-1.98-210.4 41.67.4 1.9z" transform="translate(-2076.1 -741.13)"/><path style="fill-rule:evenodd;fill:url(#w)" d="m2109.5 909.7 203.1 69.17.7-1.9-203.1-69.17-.7 1.9z" transform="translate(-2076.1 -741.13)"/><path style="fill-rule:evenodd;fill:url(#x)" d="m2170.9 817.14 141.3 161.44 1.5-1.32-141.3-161.45-1.5 1.33z" transform="translate(-2076.1 -741.13)"/><path style="fill-rule:evenodd;fill:url(#y)" d="M2313.9 1192.5V977.92h-2v214.58h2z" transform="translate(-2076.1 -741.13)"/><path style="stroke-linejoin:round;stroke:#2e3436;stroke-linecap:round;stroke-dasharray:15.15281864,3.78820466;stroke-width:3.7882;fill:#2e3436" d="M2312.9 743.02c-129.6 0-234.9 105.23-234.9 234.9 0 129.68 105.3 234.88 234.9 234.88 129.7 0 234.9-105.2 234.9-234.88 0-129.67-105.2-234.9-234.9-234.9zm0 16.78c120.4 0 218.2 97.72 218.2 218.12 0 120.38-97.8 218.08-218.2 218.08s-218.1-97.7-218.1-218.08c0-120.4 97.7-218.12 218.1-218.12z" transform="translate(-2076.1 -741.13)"/><path style="opacity:.16477;filter:url(#z);fill:#eeeeec" transform="translate(-201.3 51.56) scale(.18941)" d="M2312.9-219.41c-660.9 0-1197.3 536.41-1197.3 1197.3 0 660.91 536.4 1197.3 1197.3 1197.3s1197.3-536.4 1197.3-1197.3-536.4-1197.3-1197.3-1197.3zm0 45.75c635.7 0 1151.6 515.9 1151.6 1151.6 0 635.66-515.9 1151.6-1151.6 1151.6-635.6 0-1151.5-515.9-1151.5-1151.6 0-635.66 515.9-1151.6 1151.5-1151.6z"/><path style="fill:url(#A)" d="M2312.9 759.8c-120.4 0-218.1 97.72-218.1 218.12 0 120.38 97.7 218.08 218.1 218.08s218.2-97.7 218.2-218.08c0-120.4-97.8-218.12-218.2-218.12zm0 16.78c111.2 0 201.4 90.2 201.4 201.34 0 111.18-90.2 201.38-201.4 201.38-111.1 0-201.3-90.2-201.3-201.38 0-111.14 90.2-201.34 201.3-201.34z" transform="translate(-2076.1 -741.13)"/><path style="fill:url(#B)" d="M2359.7 882.66a133.34 133.34 0 1 1-266.7 0 133.34 133.34 0 1 1 266.7 0z" transform="translate(-155.4 81.3) scale(.17616)"/><path style="fill:#2e3436" d="M2359.7 882.66a133.34 133.34 0 1 1-266.7 0 133.34 133.34 0 1 1 266.7 0z" transform="translate(1.2 143.36) scale(.10585)"/></svg>