<?xml version="1.0" encoding="utf-8"?>
<!-- Generator: Adobe Illustrator 18.0.0, SVG Export Plug-In . SVG Version: 6.00 Build 0)  -->
<!DOCTYPE svg PUBLIC "-//W3C//DTD SVG 1.1//EN" "http://www.w3.org/Graphics/SVG/1.1/DTD/svg11.dtd">
<svg version="1.1" id="Capa_1" xmlns="http://www.w3.org/2000/svg" xmlns:xlink="http://www.w3.org/1999/xlink" x="0px" y="0px"
	 viewBox="0 0 500 90" enable-background="new 0 0 500 90" xml:space="preserve">
<path fill="#C1C1C1" d="M214.2,50.8c0.3,0.4,0.6,0.7,0.8,1c0.8,0.9,1.5,1.7,2.3,2.6c1,1.2,2.1,2.4,3.1,3.5c0.7,0.8,1.3,1.5,2,2.2
	c1.2,1.3,2.3,2.6,3.5,3.9c0.7,0.8,1.5,1.7,2.2,2.5c1.1,1.2,2.2,2.5,3.3,3.7c0.7,0.8,1.5,1.7,2.2,2.5c0.3,0.3,0.5,0.6,0.8,0.9
	c-0.1,0.2-0.3,0.2-0.5,0.2c-0.3,0-0.5,0-0.8,0c-14.3,0-28.6,0-42.9,0c-0.3,0-0.6,0-0.8,0c-0.6-0.1-1-0.5-1.4-1c-2.3-3-4.7-5.9-7-8.9
	c-1.5-2-3.1-3.9-4.6-5.9c-1.7-2.2-3.4-4.4-5.1-6.6c-1.1-1.4-2.2-2.8-3.3-4.2c-0.9-1.1-1.8-2.3-2.7-3.4c-0.2-0.2-0.4-0.4-0.4-0.7
	c0.1-0.3,0.4-0.1,0.7-0.2c0.3-0.1,0.6-0.1,0.8-0.1c8.2,0,16.4,0,24.7,0c0.6,0,1.2,0,1.9,0c1.9-0.1,3.6-0.7,5-2
	c0.9-0.8,1.5-1.9,1.9-3c0.7-1.9,1.4-3.8,2.1-5.8c0.2-0.8,0.4-1.6,0.2-2.4c-0.3-1.4-1.3-2.1-2.6-2.4c-0.5-0.1-0.9-0.1-1.4-0.1
	c-9.5,0-18.9,0-28.4,0c-1.1,0-1.2,0.1-1.6,1.1c-0.4,1-0.7,2.1-1.1,3.1c-1.1,3.2-2.3,6.3-3.4,9.5c-0.6,1.6-1.1,3.2-1.7,4.8
	c-1.1,3.1-2.3,6.3-3.4,9.4c-0.7,2-1.5,4.1-2.2,6.1c-1.2,3.2-2.3,6.4-3.5,9.7c-0.2,0.6-0.5,1.3-0.7,1.9c-0.3,1-0.8,1.3-1.9,1.3
	c-6.2,0-12.3,0-18.5,0c-6.4,0-12.8,0-19.1,0c-0.8,0-0.9,0-0.6-0.8c0.4-1.2,0.9-2.5,1.3-3.7c0.6-1.6,1.2-3.2,1.8-4.8
	c1.1-3,2.2-6,3.2-9c0.6-1.6,1.2-3.3,1.8-4.9c1.1-3,2.2-6,3.2-9c0.7-1.9,1.4-3.8,2.1-5.7c1.1-3.1,2.3-6.3,3.4-9.4
	c0.7-2.1,1.5-4.1,2.2-6.2c0.4-1.2,0.9-2.4,1.3-3.7c0.2-0.6,0.7-0.9,1.3-1c0.2,0,0.3,0,0.5,0c19.8,0,39.6-0.1,59.4,0
	c14.5,0.1,29,0,43.6,0.1c1.4,0,2.8,0.2,4.1,0.8c2.2,1,3.6,2.9,3.4,5.4c0,0.5-0.1,0.9-0.3,1.4c-0.6,1.9-1.3,3.9-1.9,5.8
	c-0.6,1.7-1.2,3.4-1.8,5.1c-1.1,3.2-2.3,6.5-3.6,9.6c-1,2.4-2.6,4.3-5,5.5c-0.9,0.4-2,0.7-3,0.9c-0.6,0.1-1.2,0.1-1.8,0.1
	c-4.1,0.2-8.2,0-12.3,0.1C214.7,50.7,214.5,50.7,214.2,50.8z"/>
<path fill="#C1C1C1" d="M361.2,16c0,0.3-0.1,0.5-0.2,0.7c-1.2,3.3-2.4,6.6-3.6,10c-0.2,0.4-0.2,0.4-0.6,0.5c-0.2,0-0.3,0-0.5,0
	c-20.7,0-41.4,0-62.1,0c-0.3,0-0.5,0-0.8,0c-0.7,0-1.1,0.3-1.4,1c-0.4,1-0.7,2.1-1.1,3.1c-0.8,2.1-1.6,4.2-2.3,6.3
	c-0.1,0.4-0.3,0.8-0.4,1.2c-0.1,0.3,0,0.4,0.3,0.4c0.2,0,0.3,0,0.5,0c21,0,42.1,0,63.1,0c0.8,0,0.9,0,0.6,0.8
	c-0.7,1.9-1.3,3.7-2,5.5c-0.4,1.1-0.8,2.2-1.2,3.3c-0.1,0.2-0.2,0.4-0.2,0.6c-0.2,0.7-0.7,0.9-1.4,0.9c-2.5,0-5,0-7.5,0
	c-12.9,0-25.8,0-38.7,0c-5.4,0-10.7,0-16.1,0c-0.2,0-0.4,0-0.6,0c-0.6,0-1.1,0.3-1.4,0.9c-0.1,0.2-0.2,0.4-0.3,0.6
	c-0.5,1.6-1.2,3.2-1.8,4.8c-0.3,0.8-0.6,1.5-0.5,2.4c0.1,1.7,0.9,2.9,2.5,3.5c0.9,0.3,1.9,0.4,2.8,0.4c10.3,0,20.5,0,30.8,0
	c8.7,0,17.4,0,26.1,0c0.1,0,0.2,0,0.3,0c0.7,0,0.7,0,0.4,0.6c-0.9,2.5-1.8,5-2.8,7.6c-0.2,0.5-0.4,1.1-0.6,1.6
	c-0.3,0.7-0.8,1.1-1.6,1.1c-4.9,0.2-9.8,0-14.7,0.1c-1.7,0-3.4,0-5.1,0c-10.9-0.2-21.9-0.1-32.8-0.1c-9.8,0.1-19.7,0-29.5,0.1
	c-1.7,0-3.3-0.4-4.9-1.1c-1.3-0.7-2.4-1.7-3.4-2.8c-1.1-1.3-2.1-2.5-3.2-3.8c-0.8-0.9-1.7-1.7-2.5-2.7c-1-1.3-1.5-2.8-1.5-4.4
	c0-1.3,0.3-2.6,0.7-3.8c0.6-1.7,1.2-3.3,1.8-5c1.2-3.2,2.3-6.4,3.5-9.7c0.8-2.2,1.5-4.3,2.3-6.5c1.1-3.1,2.2-6.2,3.4-9.3
	c0.6-1.7,1.2-3.5,1.9-5.2c0.3-1,0.7-2,1.1-2.9c0.3-0.7,0.7-1,1.4-1c0.1,0,0.3,0,0.4,0c33.8,0,67.6,0,101.5,0
	C360.1,15.9,360.6,16.1,361.2,16z"/>
<path fill="#C1C1C1" d="M125.4,16c-0.2,0.7-0.5,1.4-0.7,2.1c-0.5,1.3-0.9,2.6-1.4,4c-0.5,1.4-1,2.9-1.5,4.3
	c-0.1,0.4-0.4,0.6-0.8,0.7c-0.3,0.1-0.7,0.1-1,0.1c-11.1,0-22.1,0-33.2,0c-1.2,0-1.4,0.1-1.8,1.3c-1.3,3.7-2.7,7.4-4,11.1
	c-0.9,2.5-1.8,5-2.7,7.5c-1.4,4-2.9,8-4.3,12c-0.8,2.2-1.6,4.4-2.3,6.6c-0.9,2.4-1.7,4.8-2.6,7.2c-0.3,0.9-0.9,1.3-1.9,1.3
	c-3,0-5.9,0-8.9,0c-9.2,0-18.4,0-27.6,0c-0.2,0-0.5,0-0.7,0c0-0.3,0.1-0.5,0.2-0.8c0.6-1.6,1.2-3.2,1.7-4.8c1.1-3.1,2.3-6.3,3.4-9.4
	c0.7-2,1.5-4.1,2.2-6.1c1.1-3,2.2-6,3.2-9c0.7-2,1.4-4,2.2-6c1.1-3,2.2-6.1,3.3-9.1c0.2-0.4,0.3-0.9,0.5-1.3c0.1-0.2,0-0.3-0.2-0.3
	c-0.2,0-0.3,0-0.5,0c-12.5,0-25,0-37.6,0c-0.2,0-0.5,0-0.7,0c0-0.5,0.2-0.9,0.3-1.3c0.8-2.2,1.6-4.3,2.3-6.5
	c0.3-0.9,0.6-1.7,0.9-2.6c0.1-0.2,0.1-0.4,0.2-0.5c0.2-0.3,0.5-0.5,0.8-0.4C12.7,16,13,16,13.3,16c37.1,0,74.2,0,111.3,0
	C124.8,16,125,16,125.4,16z"/>
<path fill="#C1C1C1" d="M475.2,73.9c-0.3,0.2-0.5,0.1-0.6,0.1c-11.8,0-23.5,0-35.3,0c-3.4,0-6.8,0-10.3-0.1c-0.6,0-1.1-0.2-1.5-0.7
	c-0.6-0.8-1.3-1.6-1.9-2.4c-1.3-1.7-2.7-3.4-4-5.1c-1.1-1.4-2.1-2.7-3.2-4.1c-1.4-1.7-2.7-3.5-4.1-5.2c-2-2.5-3.9-5.1-5.9-7.6
	c-1.4-1.8-2.7-3.5-4.1-5.3c0,0-0.1-0.1-0.1-0.1c-0.3-0.4-0.3-0.4,0.1-0.7c1.1-0.7,2.1-1.3,3.2-2c1.7-1.1,3.5-2.2,5.2-3.3
	c2.9-1.8,5.7-3.6,8.6-5.4c1.9-1.2,3.8-2.4,5.8-3.6c2.9-1.8,5.9-3.7,8.8-5.5c2.3-1.4,4.5-2.8,6.8-4.2c1.2-0.7,2.3-1.5,3.5-2.2
	c0.7-0.4,1.3-0.6,2.1-0.6c15.1,0,30.3,0,45.4,0c0.2,0,0.5,0,0.7,0c0.1,0,0.2,0.1,0.2,0.2c0,0.1-0.1,0.1-0.2,0.2
	c-0.8,0.5-1.7,1-2.5,1.5c-1.7,1-3.4,2-5.1,3c-1.7,1-3.5,2-5.2,3.1c-2.4,1.4-4.8,2.8-7.2,4.2c-2.7,1.6-5.4,3.1-8,4.7
	c-2.1,1.2-4.2,2.5-6.4,3.7c-2.4,1.4-4.8,2.8-7.3,4.2c-1.4,0.8-2.7,1.6-4.1,2.4c-0.4,0.2-0.4,0.3-0.1,0.6c1,1.1,1.9,2.1,2.9,3.2
	c1.3,1.4,2.5,2.9,3.8,4.3c0.7,0.8,1.4,1.6,2.2,2.4c1,1.1,1.9,2.2,2.9,3.3c0.7,0.8,1.4,1.6,2.1,2.3c1.1,1.2,2.1,2.4,3.2,3.6
	c0.7,0.7,1.3,1.5,2,2.2c1,1.2,2.1,2.4,3.1,3.6c0.7,0.8,1.4,1.6,2.2,2.4C473.5,72,474.3,72.9,475.2,73.9z"/>
<path fill="#C1C1C1" d="M369.8,74.1c-6.4,0-12.8,0-19.3,0c-0.3,0-0.6,0-0.9-0.1c-0.2,0-0.2-0.1-0.2-0.3c0.2-0.7,0.5-1.4,0.7-2
	c0.6-1.7,1.2-3.3,1.8-5c1.1-3.1,2.2-6.1,3.3-9.2c0.7-2,1.4-3.9,2.1-5.9c1.1-3,2.2-5.9,3.2-8.9c0.7-2,1.5-4.1,2.2-6.1
	c1.1-3.1,2.3-6.3,3.4-9.4c0.7-2.1,1.5-4.1,2.2-6.2c0.5-1.4,1-2.7,1.5-4.1c0.3-0.8,0.6-1,1.5-1c3.7,0,7.5,0,11.2,0c0.7,0,1.5,0,2.2,0
	c8.5,0.2,17,0,25.5,0.1c0.8,0,0.8,0,0.6,0.8c-0.5,1.5-1,3-1.6,4.4c-0.6,1.6-1.2,3.3-1.8,4.9c-1.1,3-2.2,6-3.2,9
	c-0.7,1.8-1.3,3.7-2,5.5c-1.1,3.1-2.2,6.1-3.3,9.2c-0.6,1.6-1.1,3.2-1.7,4.8c-1,2.9-2.1,5.8-3.1,8.7c-0.7,2-1.5,4.1-2.2,6.1
	c-0.4,1.2-0.9,2.5-1.3,3.7c-0.3,0.8-0.5,0.9-1.3,0.9c-2.9,0-5.8,0-8.7,0C377,74.1,373.4,74.1,369.8,74.1
	C369.8,74.1,369.8,74.1,369.8,74.1z"/>
</svg>
