<?xml version="1.0" encoding="utf-8"?>
<!-- Generator: Adobe Illustrator 26.0.0, SVG Export Plug-In . SVG Version: 6.00 Build 0)  -->
<svg version="1.1" id="Capa_1" xmlns="http://www.w3.org/2000/svg" xmlns:xlink="http://www.w3.org/1999/xlink" x="0px" y="0px"
	 viewBox="0 0 500 90" style="enable-background:new 0 0 500 90;" xml:space="preserve">
<style type="text/css">
	.st0{fill:#C0C0C0;}
</style>
<g>
	<path class="st0" d="M313.3,51.1c0.7,0.8,1.3,1.6,1.8,2.3c1.6,2,3.1,3.9,4.7,5.8c1.6,2,3.3,4.1,5,6.2c0.7,0.8,1.4,1.6,2,2.4
		c0.1,0.1,0.2,0.2,0.1,0.3c-0.1,0.1-0.2,0.1-0.3,0.1c-6,0.2-11.9,0.1-17.8,0.1c-2,0-3.7-0.7-5.3-2c-1.1-0.9-1.9-2.1-2.8-3.2
		c-1.3-1.6-2.5-3.1-3.8-4.7c-1.4-1.8-2.8-3.5-4.3-5.3c-0.3-0.3-0.5-0.7-0.9-1.1c-0.7-0.8-1.6-1.2-2.6-1.2c-2.4,0.1-4.9,0.1-7.3,0.1
		c-0.9,0-1.9-0.1-2.8-0.1c-0.8,0-1.6,0.2-2.2,0.7c-0.4,0.3-0.7,0.8-0.9,1.3c-1.7,3.1-3.4,6.1-5.2,9.2c-0.5,1-1.1,2-1.8,3
		c-1.4,2-3.3,3.1-5.7,3.2c-1.4,0.1-2.7,0-4.1,0.1c-1.2,0.1-2.5,0.1-3.7,0.1c-2.6-0.1-5.1,0-7.6-0.1c-0.2,0-0.5-0.1-0.7-0.1
		c-0.4,0-0.3-0.2-0.2-0.5c0.5-1.2,1.2-2.3,1.9-3.5c1.5-2.6,3-5.2,4.5-7.7c2-3.5,4.1-7,6.1-10.5c2.6-4.6,5.3-9.2,8-13.8
		c1.7-2.9,3.3-5.8,5-8.7c0.7-1.2,1.8-1.8,3.1-1.8c1.4,0,2.6,0,4,0c4.6,0.1,9.2,0.1,13.8,0.1c3.7-0.1,7.4-0.1,11.1,0
		c4.7,0.1,9.4,0,14,0.1c1.2,0,2.4,0,3.7,0.1c1.6,0.1,3.1,0.2,4.7,0.4c2.2,0.3,4.3,0.7,6.4,1.4c2.3,0.7,4.3,1.9,5.6,4
		c1,1.7,1.4,3.5,1.2,5.4c-0.3,2.9-1.7,5.4-3.4,7.8c-2.1,2.9-4.7,5.1-7.9,6.6c-2.4,1.2-5,2-7.7,2.5c-1.8,0.3-3.5,0.5-5.3,0.7
		C315,50.8,314.2,50.9,313.3,51.1z M293.3,42.5c1.1-0.1,2.4,0,3.8-0.1c1.8-0.1,3.6-0.1,5.4-0.1c0.6,0,1.3-0.1,1.9-0.2
		c1.7-0.2,3.4-0.7,5-1.2c2.8-0.7,4.9-2.3,6.5-4.7c0.5-0.7,0.7-1.6,0.6-2.5c-0.2-1.1-0.9-1.8-1.8-2.2c-2.2-1.1-4.6-1.5-7.1-1.6
		c-1.6-0.1-3.2-0.1-4.8-0.1c-4.8-0.1-9.6,0-14.4,0c-1.1,0-2,0.5-2.5,1.4c-0.2,0.4-0.5,0.8-0.7,1.2c-1.2,2.1-2.4,4.2-3.6,6.3
		c-0.5,1-1.2,2-1.6,3.1c-0.1,0.2-0.1,0.3,0.2,0.3c0.4,0,0.7,0.1,1.2,0.1c3.3,0,6.5,0,9.8,0.1C291.6,42.5,292.3,42.5,293.3,42.5z"/>
	<path class="st0" d="M129,68c0.7-0.7,1.4-1.4,2.2-1.9c1.9-1.5,3.8-3,5.6-4.5c2.1-1.7,4.2-3.3,6.3-5c1.8-1.5,3.7-3,5.6-4.5
		c2.1-1.7,4.1-3.3,6.2-5c1.9-1.5,3.7-3,5.6-4.5c2.1-1.7,4.2-3.4,6.3-5c2-1.6,3.9-3.1,5.9-4.7c2-1.6,4.1-3.3,6.1-4.9
		c1.8-1.5,3.7-3,5.6-4.4c0.5-0.5,1.1-0.9,1.8-1.3c0.5-0.3,1.2-0.4,1.8-0.4c6.2,0,12.3,0,18.4,0c0.6,0,1.2,0.1,1.8,0.3
		c1.2,0.5,1.9,1.5,2.1,2.8c0.1,1.2,0.2,2.3,0.3,3.5c0.1,1.4,0.3,2.7,0.3,4.1c0.1,1,0.1,2.1,0.3,3.1c0.1,1.4,0.3,2.7,0.3,4.1
		c0.1,1,0.1,2,0.3,3.1c0.1,1.4,0.3,2.7,0.3,4.1c0.1,0.7,0.1,1.4,0.1,2.1c0.1,1.4,0.3,2.8,0.3,4.3c0.1,1,0.1,2,0.3,3.1
		c0.1,1.4,0.3,2.7,0.3,4.1c0.1,1,0.1,2,0.3,3.1c0.1,1.2,0.2,2.3,0.3,3.5c0.1,0.9-0.2,1.4-1.2,1.4c-4.7,0-9.4,0-14,0
		c-0.5,0-1.1-0.1-1.6-0.3c-1.2-0.5-1.6-1.4-1.8-2.6c-0.2-1.2-0.3-2.5-0.4-3.7c-0.1-0.6-0.1-1.3-0.2-1.9c-0.1-0.3-0.2-0.3-0.5-0.3
		c-2.2-0.1-4.3-0.1-6.4-0.1c-7.4,0-14.8,0-22.2,0c-1.4,0-2.5,0.3-3.6,1.2c-2.4,1.8-4.7,3.7-7.1,5.6c-1.8,1.4-3.7,2.2-6,2.2
		c-5.8,0-11.5,0-17.2,0C130.6,68.2,129.9,68.1,129,68z M174.9,50c0.1,0.1,0.1,0.1,0.2,0.1c6.1,0,12.2,0,18.4,0
		c0.3,0,0.3-0.1,0.3-0.3c-0.1-0.9-0.1-1.8-0.2-2.6c-0.1-1-0.1-2-0.3-3.1c-0.1-1.4-0.3-2.7-0.3-4.1c-0.1-1-0.2-2-0.7-3
		c-0.1-0.1-0.1-0.2-0.3-0.1c-0.5,0.2-1.2,0.3-1.6,0.7c-0.7,0.5-1.3,1-2,1.5c-1.9,1.5-3.8,3-5.7,4.5c-2.1,1.7-4.2,3.4-6.3,5.1
		C175.8,49,175.4,49.5,174.9,50z"/>
	<path class="st0" d="M360.9,68.2c-1.2,0-2.4,0.1-3.6,0c-2-0.1-4.1-0.1-6.2-0.3c-1.6-0.1-3.1-0.3-4.6-0.5c-2.2-0.3-4.3-0.8-6.4-1.6
		c-0.9-0.3-1.8-0.7-2.6-1.2c-1.8-1-2.8-2.4-3-4.5c-0.1-1.2,0.1-2.2,0.4-3.3c0.5-1.8,1.4-3.6,2.2-5.4c2.2-4.7,4.8-9.2,7.7-13.4
		c1.4-2,2.8-4.1,4.3-6c2-2.5,4.5-4.5,7.3-6.2c2.6-1.5,5.5-2.4,8.4-2.8c1.4-0.2,2.8-0.3,4.2-0.5c1.6-0.2,3.3-0.3,4.9-0.4
		c0.9-0.1,1.8-0.1,2.6-0.1c2.1-0.1,4.2-0.1,6.3-0.2c1,0,2-0.1,3.1,0c1.2,0.1,2.4,0,3.7,0.1c1.6,0.1,3.1,0.1,4.7,0.2
		c1.6,0.1,3.3,0.3,4.9,0.4c1.6,0.2,3.2,0.3,4.7,0.6c1.8,0.4,3.6,0.8,5.2,1.7c1.2,0.7,2.2,1.6,2.8,2.9c0.1,0.1,0.1,0.1,0.1,0.3
		c0,0.1,0,0.1,0,0.2c0,0.9,0.1,2-0.1,2.9c-0.2,0.9-0.8,1.8-1.2,2.6c-0.8,1.7-1.7,3.5-2.5,5.2c-1.9,3.7-3.9,7.4-6.2,10.9
		c-1.6,2.4-3.3,4.9-5,7.3c-2.1,2.8-4.7,5.1-7.8,6.8c-2.9,1.7-6.1,2.7-9.4,3.2c-1.4,0.2-2.6,0.3-4,0.5c-2,0.2-3.9,0.3-5.9,0.5
		c-1.5,0.1-3.1,0.1-4.5,0.2C364,68.2,362.4,68.2,360.9,68.2z M366.3,59.7c1.2,0.1,2.4-0.1,3.5-0.2c3.2-0.5,6-2,8.3-4.2
		c1.4-1.3,2.4-2.8,3.4-4.3c2.6-3.8,4.9-7.8,6.7-12c0.5-1.3,1.2-2.6,1.6-3.9c0.3-0.9,0.3-1.8,0-2.7c-0.4-1.2-1.4-1.7-2.5-2
		c-1.2-0.3-2.6-0.4-3.8-0.4c-1.1-0.1-2.2,0-3.3,0c-1.6,0-3.1,0-4.7,0.3c-2.7,0.5-5,1.7-7,3.6c-0.9,0.9-1.8,2-2.6,3.1
		c-2.8,4.1-5.6,8.3-7.7,13c-0.9,1.9-1.6,3.9-2.3,5.9c-0.2,0.7-0.3,1.4-0.1,2.1c0.3,0.9,1.2,1.3,2,1.5c1.8,0.4,3.6,0.4,5.4,0.5
		C364.4,59.9,365.3,59.7,366.3,59.7z"/>
	<path class="st0" d="M174.6,21.9c-0.6,0.5-1.1,0.9-1.6,1.4c-1.8,1.5-3.7,2.9-5.5,4.4c-2.2,1.7-4.3,3.5-6.4,5.2
		c-2.2,1.8-4.4,3.5-6.6,5.3c-2.2,1.8-4.5,3.6-6.7,5.4c-2.1,1.7-4.2,3.3-6.2,5c-2.2,1.8-4.4,3.5-6.6,5.3c-2.4,2-4.9,3.9-7.3,5.8
		c-2.3,1.8-4.6,3.7-7,5.6c-0.7,0.5-1.4,1.1-2.1,1.6c-0.9,0.7-2,1.2-3.1,1.2c-6.6,0.1-13.2,0.1-19.9,0.1c-1.1,0-2.1-0.3-2.9-1.2
		c-0.6-0.7-0.9-1.5-0.9-2.4c-0.1-1.6-0.3-3.1-0.4-4.6c-0.1-1.8-0.3-3.6-0.5-5.4c-0.1-1.8-0.3-3.7-0.5-5.5c-0.1-1.5-0.3-3-0.4-4.5
		c-0.1-1.9-0.3-3.7-0.5-5.6c-0.1-1.5-0.3-3-0.4-4.5c-0.1-1.8-0.3-3.6-0.5-5.4c-0.1-1.4-0.3-2.9-0.4-4.3c-0.1-0.5-0.1-0.9-0.1-1.5
		c-0.1-1.4,0.5-1.6,1.6-1.6c1.2,0,2.3,0.1,3.5,0.1c3.5,0,7.1-0.1,10.6,0c2.4,0.1,3.5,1.4,3.7,3.6c0.1,1.3,0.3,2.5,0.3,3.8
		c0.1,0.9,0.1,1.9,0.3,2.8c0.1,1.3,0.3,2.5,0.3,3.8c0.1,0.9,0.1,1.8,0.3,2.8c0.1,1.4,0.3,2.7,0.3,4.1c0.1,0.9,0.1,1.9,0.3,2.8
		c0.1,1.3,0.3,2.5,0.3,3.8c0.1,1.1,0.2,2.1,0.3,3.2c0,0.2,0.1,0.4,0.1,0.6c0.9-0.5,1.8-1.2,2.6-1.9c1.9-1.5,3.8-3,5.7-4.5
		c2.2-1.7,4.3-3.4,6.4-5.1c2-1.6,4.1-3.3,6.1-4.8c2-1.6,3.9-3.1,5.9-4.7c2-1.6,4.1-3.3,6.1-4.9c1.3-1,2.6-2.2,4-3.1
		c2-1.2,4-2,6.3-2.2c1.4-0.2,2.8-0.1,4.1-0.1c5.4,0,10.8,0,16.1,0C173.7,21.8,174.1,21.8,174.6,21.9z"/>
	<path class="st0" d="M253.9,21.8c2.6,0,5.1,0,7.7,0c0.3,0,0.5,0.1,0.7,0.1c0.4,0,0.3,0.1,0.2,0.4c-0.4,0.9-0.9,1.7-1.4,2.5
		c-1.4,2.3-2.7,4.7-4.1,7c-1.3,2.2-2.6,4.4-3.9,6.6c-1.4,2.5-2.9,5-4.3,7.5c-2.1,3.6-4.2,7.2-6.3,10.8c-1.4,2.5-2.8,5-4.3,7.5
		c-1.2,2-2.8,3.3-5,3.9c-0.5,0.1-1.1,0.2-1.6,0.2c-4.8,0-9.6,0-14.4,0c-0.4,0-0.8-0.1-1.2-0.1c-0.3,0-0.3-0.1-0.2-0.3
		c0.5-1.1,1.1-2,1.6-3.1c1.5-2.6,3-5.2,4.5-7.7c1.9-3.3,3.9-6.6,5.8-9.9c2.4-4.1,4.7-8.1,7.1-12.1c1.9-3.2,3.7-6.4,5.6-9.6
		c1.2-2,3-3.3,5.3-3.5c0.7-0.1,1.4,0,2.1,0C249.8,21.8,251.8,21.8,253.9,21.8L253.9,21.8z"/>
</g>
</svg>
