<?xml version="1.0" encoding="utf-8"?>
<!-- Generator: Adobe Illustrator 18.0.0, SVG Export Plug-In . SVG Version: 6.00 Build 0)  -->
<!DOCTYPE svg PUBLIC "-//W3C//DTD SVG 1.1//EN" "http://www.w3.org/Graphics/SVG/1.1/DTD/svg11.dtd">
<svg version="1.1" id="Capa_1" xmlns="http://www.w3.org/2000/svg" xmlns:xlink="http://www.w3.org/1999/xlink" x="0px" y="0px"
	 viewBox="0 0 500 90" enable-background="new 0 0 500 90" xml:space="preserve">
<g>
	<path fill="#C0C0C0" d="M343.2,54c1,1.2,1.9,2.3,2.7,3.4c2.3,2.9,4.6,5.7,6.9,8.6c2.4,3,4.9,6,7.4,9.1c1,1.2,2,2.4,3,3.6
		c0.1,0.1,0.3,0.3,0.2,0.4c-0.1,0.2-0.3,0.1-0.5,0.1c-8.8,0.3-17.5,0.1-26.3,0.1c-2.9,0-5.5-1.1-7.8-3c-1.6-1.4-2.8-3.1-4.2-4.7
		c-1.9-2.3-3.7-4.6-5.6-6.9c-2.1-2.6-4.2-5.2-6.3-7.8c-0.4-0.5-0.8-1-1.3-1.6c-1-1.2-2.4-1.7-3.9-1.7c-3.6,0.1-7.2,0.1-10.8,0.1
		c-1.4,0-2.8-0.1-4.1-0.1c-1.2,0-2.4,0.3-3.3,1.1c-0.6,0.5-1,1.2-1.4,1.9c-2.5,4.5-5,9-7.6,13.5c-0.8,1.5-1.6,3-2.6,4.4
		c-2,2.9-4.8,4.5-8.4,4.7c-2,0.1-4,0-6,0.1c-1.8,0.1-3.7,0.1-5.5,0.1c-3.8-0.1-7.5,0-11.2-0.1c-0.3,0-0.7-0.1-1-0.2
		c-0.6,0-0.5-0.3-0.3-0.7c0.7-1.8,1.8-3.4,2.8-5.1c2.2-3.8,4.4-7.6,6.6-11.4c3-5.2,6-10.3,9-15.5c3.9-6.8,7.8-13.5,11.8-20.3
		c2.5-4.3,4.9-8.5,7.4-12.8c1-1.8,2.6-2.7,4.6-2.7c2,0,3.9,0,5.9,0c6.8,0.2,13.6,0.1,20.4,0.1c5.5-0.1,10.9-0.1,16.4,0
		c6.9,0.1,13.8,0,20.7,0.1c1.8,0,3.6,0,5.4,0.1c2.3,0.1,4.6,0.3,6.9,0.6c3.2,0.4,6.4,1,9.5,2c3.4,1.1,6.4,2.8,8.3,5.9
		c1.5,2.5,2.1,5.2,1.7,8c-0.5,4.3-2.5,8-5,11.5c-3.1,4.3-7,7.5-11.7,9.8c-3.6,1.8-7.4,2.9-11.4,3.7c-2.6,0.5-5.2,0.8-7.8,1
		C345.6,53.6,344.5,53.8,343.2,54z M313.6,41.3c1.6-0.1,3.6,0,5.6-0.1c2.6-0.1,5.3-0.1,7.9-0.2c0.9,0,1.9-0.1,2.8-0.3
		c2.5-0.3,5-1,7.4-1.7c4.1-1.1,7.2-3.4,9.6-6.9c0.7-1.1,1.1-2.3,0.9-3.7c-0.3-1.6-1.3-2.6-2.7-3.3c-3.3-1.6-6.8-2.2-10.4-2.3
		c-2.4-0.1-4.7-0.1-7.1-0.1c-7.1-0.1-14.2,0-21.3,0c-1.6,0-2.9,0.7-3.7,2.1c-0.3,0.6-0.7,1.2-1,1.7c-1.8,3.1-3.5,6.2-5.3,9.3
		c-0.8,1.5-1.7,2.9-2.3,4.5c-0.1,0.3-0.1,0.5,0.3,0.5c0.6,0,1.1,0.2,1.7,0.2c4.8,0,9.6,0,14.4,0.1C311.2,41.3,312.2,41.3,313.6,41.3
		z"/>
	<path fill="#C0C0C0" d="M71.3,78.9c1.1-1,2.1-2,3.2-2.8c2.8-2.2,5.6-4.4,8.3-6.7c3.1-2.5,6.2-4.9,9.3-7.4c2.7-2.2,5.5-4.4,8.2-6.6
		c3.1-2.5,6.1-4.9,9.2-7.4c2.8-2.2,5.5-4.4,8.3-6.6c3.1-2.5,6.2-5,9.3-7.4c2.9-2.3,5.8-4.6,8.7-7c3-2.4,6-4.8,9-7.2
		c2.7-2.2,5.4-4.4,8.2-6.5c0.8-0.7,1.6-1.4,2.6-1.9c0.8-0.4,1.7-0.6,2.6-0.6c9.1,0,18.1,0,27.2,0c0.9,0,1.8,0.1,2.6,0.4
		c1.8,0.7,2.8,2.2,3.1,4.1c0.2,1.7,0.3,3.4,0.5,5.1c0.2,2,0.4,4,0.5,6c0.1,1.5,0.2,3.1,0.4,4.6c0.2,2,0.4,4,0.5,6
		c0.1,1.5,0.2,3,0.4,4.5c0.2,2,0.4,4,0.5,6c0.1,1,0.2,2,0.2,3.1c0.2,2.1,0.4,4.2,0.5,6.3c0.1,1.5,0.2,3,0.4,4.6c0.2,2,0.4,4,0.5,6.1
		c0.1,1.5,0.2,3,0.4,4.5c0.1,1.7,0.3,3.4,0.4,5.2c0.2,1.4-0.3,2.1-1.8,2.1c-6.9,0-13.8,0-20.7,0c-0.8,0-1.6-0.2-2.4-0.5
		c-1.7-0.7-2.4-2.1-2.6-3.8c-0.3-1.8-0.4-3.7-0.6-5.5c-0.1-0.9-0.1-1.9-0.3-2.8c-0.1-0.4-0.3-0.5-0.7-0.5c-3.2-0.2-6.3-0.1-9.5-0.1
		c-10.9,0-21.9,0-32.8,0c-2,0-3.7,0.5-5.3,1.8c-3.5,2.7-7,5.5-10.4,8.3c-2.6,2.1-5.4,3.2-8.8,3.2c-8.5,0-16.9,0-25.4,0
		C73.7,79.3,72.6,79.1,71.3,78.9z M139,52.4c0.1,0.1,0.2,0.1,0.3,0.1c9,0,18,0,27.1,0c0.4,0,0.5-0.1,0.5-0.5
		c-0.1-1.3-0.2-2.6-0.3-3.8c-0.1-1.5-0.2-3-0.4-4.6c-0.2-2-0.4-4-0.5-6c-0.1-1.5-0.3-3-1-4.4c-0.1-0.1-0.1-0.3-0.4-0.2
		c-0.8,0.3-1.7,0.5-2.4,1.1c-1,0.7-1.9,1.5-2.9,2.2c-2.8,2.2-5.6,4.4-8.4,6.7c-3.1,2.5-6.2,5-9.3,7.5C140.4,51,139.7,51.7,139,52.4z
		"/>
	<path fill="#C0C0C0" d="M413.3,79.3c-1.8,0-3.5,0.1-5.3,0c-3-0.1-6.1-0.2-9.1-0.5c-2.3-0.2-4.6-0.4-6.8-0.7
		c-3.2-0.4-6.4-1.2-9.4-2.4c-1.3-0.5-2.7-1.1-3.9-1.8c-2.6-1.5-4.2-3.6-4.4-6.7c-0.2-1.7,0.2-3.3,0.6-4.8c0.8-2.7,2-5.3,3.2-7.9
		c3.3-6.9,7.1-13.5,11.4-19.8c2-3,4.1-6,6.4-8.8c3-3.7,6.6-6.7,10.8-9.1c3.9-2.2,8.1-3.5,12.4-4.2c2.1-0.3,4.1-0.5,6.2-0.7
		c2.4-0.3,4.8-0.4,7.2-0.6c1.3-0.1,2.6-0.2,3.8-0.2c3.1-0.1,6.2-0.2,9.3-0.3c1.5,0,3-0.1,4.5,0c1.8,0.1,3.6,0,5.4,0.1
		c2.3,0.1,4.6,0.2,6.9,0.3c2.4,0.2,4.9,0.4,7.3,0.6c2.3,0.3,4.7,0.4,7,0.9c2.6,0.6,5.3,1.2,7.7,2.5c1.8,1,3.2,2.4,4.2,4.3
		c0.1,0.1,0.1,0.2,0.1,0.4c0,0.1,0,0.2,0,0.3c0,1.4,0.2,2.9-0.1,4.3c-0.3,1.3-1.2,2.6-1.8,3.8c-1.2,2.5-2.5,5.1-3.7,7.6
		c-2.8,5.5-5.8,10.9-9.2,16.1c-2.4,3.6-4.8,7.3-7.4,10.7c-3.1,4.1-6.9,7.5-11.5,10.1c-4.3,2.5-9,4-13.9,4.7c-2,0.3-3.9,0.5-5.9,0.7
		c-2.9,0.3-5.8,0.5-8.7,0.7c-2.2,0.1-4.5,0.2-6.7,0.3C417.9,79.3,415.6,79.2,413.3,79.3z M421.3,66.8c1.8,0.1,3.5-0.1,5.2-0.3
		c4.7-0.8,8.8-2.9,12.2-6.2c2-1.9,3.5-4.2,5-6.4c3.8-5.6,7.2-11.5,9.9-17.7c0.8-1.9,1.8-3.8,2.3-5.8c0.4-1.3,0.5-2.6,0-4
		c-0.6-1.7-2.1-2.5-3.7-3c-1.8-0.5-3.8-0.6-5.6-0.6c-1.6-0.1-3.2,0-4.8,0c-2.3,0-4.6,0-6.9,0.5c-4,0.8-7.4,2.5-10.3,5.3
		c-1.4,1.4-2.7,2.9-3.8,4.5c-4.2,6.1-8.3,12.3-11.4,19.1c-1.3,2.8-2.4,5.7-3.4,8.7c-0.3,1-0.5,2.1-0.1,3.1c0.5,1.4,1.7,1.9,3,2.2
		c2.6,0.6,5.3,0.6,7.9,0.8C418.5,67,419.9,66.7,421.3,66.8z"/>
	<path fill="#C0C0C0" d="M138.6,11c-0.9,0.8-1.6,1.4-2.4,2.1c-2.7,2.2-5.4,4.3-8.1,6.5c-3.2,2.5-6.3,5.1-9.5,7.6
		c-3.3,2.6-6.5,5.2-9.8,7.8c-3.3,2.7-6.6,5.3-9.9,8c-3.1,2.5-6.2,4.9-9.2,7.4c-3.3,2.6-6.5,5.2-9.8,7.8c-3.6,2.9-7.2,5.8-10.8,8.6
		c-3.4,2.7-6.8,5.5-10.3,8.2c-1,0.8-2,1.6-3.1,2.4c-1.4,1-2.9,1.7-4.6,1.8c-9.8,0.2-19.5,0.1-29.3,0.1c-1.6,0-3.1-0.4-4.3-1.7
		c-0.9-1-1.3-2.2-1.4-3.5c-0.2-2.3-0.4-4.6-0.6-6.8c-0.2-2.6-0.4-5.3-0.7-7.9c-0.2-2.7-0.4-5.4-0.7-8.1c-0.2-2.2-0.4-4.4-0.6-6.6
		c-0.2-2.8-0.4-5.5-0.7-8.3c-0.2-2.2-0.4-4.4-0.6-6.6c-0.2-2.7-0.4-5.3-0.7-8c-0.2-2.1-0.4-4.3-0.6-6.4c-0.1-0.7-0.2-1.4-0.2-2.2
		c-0.1-2,0.7-2.4,2.4-2.4c1.7,0,3.4,0.1,5.1,0.1c5.2,0,10.4-0.1,15.6,0c3.5,0.1,5.1,2,5.4,5.3c0.2,1.9,0.4,3.7,0.5,5.6
		c0.1,1.4,0.2,2.8,0.4,4.2c0.2,1.9,0.4,3.7,0.5,5.6c0.1,1.4,0.2,2.7,0.4,4.1c0.2,2,0.4,4,0.5,6c0.1,1.4,0.2,2.8,0.4,4.2
		c0.2,1.9,0.4,3.7,0.5,5.6c0.1,1.6,0.3,3.1,0.5,4.7c0,0.3,0.1,0.6,0.1,0.9c1.4-0.8,2.7-1.8,3.9-2.8c2.8-2.2,5.6-4.4,8.4-6.6
		c3.2-2.5,6.3-5,9.5-7.5c3-2.4,6-4.8,9-7.1c2.9-2.3,5.8-4.6,8.7-6.9c3-2.4,6-4.8,9-7.2c1.9-1.5,3.8-3.2,5.9-4.5
		c2.9-1.8,5.9-2.9,9.3-3.3c2-0.3,4.1-0.1,6.1-0.1c7.9,0,15.9,0,23.8,0C137.3,10.8,137.8,10.9,138.6,11z"/>
	<path fill="#C0C0C0" d="M255.5,10.8c3.8,0,7.5,0,11.3,0c0.4,0,0.7,0.1,1.1,0.1c0.6,0,0.5,0.2,0.3,0.6c-0.6,1.3-1.3,2.5-2,3.7
		c-2,3.4-4,6.9-6,10.3c-1.9,3.3-3.8,6.5-5.7,9.8c-2.1,3.7-4.3,7.4-6.4,11c-3.1,5.3-6.2,10.6-9.3,16c-2.1,3.7-4.2,7.4-6.4,11
		c-1.7,2.9-4.1,4.9-7.4,5.7c-0.8,0.2-1.6,0.3-2.4,0.3c-7.1,0-14.2,0-21.3,0c-0.6,0-1.2-0.1-1.8-0.1c-0.4,0-0.4-0.1-0.3-0.5
		c0.7-1.6,1.6-3,2.4-4.5c2.2-3.8,4.4-7.6,6.7-11.4c2.8-4.9,5.7-9.7,8.5-14.6c3.5-6,7-12,10.4-17.9c2.8-4.7,5.5-9.5,8.3-14.2
		c1.8-3,4.4-4.8,7.8-5.2c1-0.1,2.1,0,3.1,0C249.5,10.8,252.5,10.8,255.5,10.8C255.5,10.8,255.5,10.8,255.5,10.8z"/>
</g>
</svg>
