<?xml version="1.0" encoding="utf-8"?>
<!-- Generator: Adobe Illustrator 18.0.0, SVG Export Plug-In . SVG Version: 6.00 Build 0)  -->
<!DOCTYPE svg PUBLIC "-//W3C//DTD SVG 1.1//EN" "http://www.w3.org/Graphics/SVG/1.1/DTD/svg11.dtd">
<svg version="1.1" id="Capa_1" xmlns="http://www.w3.org/2000/svg" xmlns:xlink="http://www.w3.org/1999/xlink" x="0px" y="0px"
	 viewBox="0 0 500 90" enable-background="new 0 0 500 90" xml:space="preserve">
<g>
	<path fill="#C0C0C0" d="M147.6,22.1c11.6,0,23.2,0.1,34.9,0c4,0,6.7,1.6,8.8,4.8c2.3,3.5,3.6,7.3,4,11.4c0.6,6.9-1,13.2-5.1,18.8
		c-1.3,1.7-2.8,3.2-4.6,4.4c-0.9,0.6-1.9,0.8-3,0.5c-6.4-1.9-13-3.4-19.5-5.1c-12.3-3.2-24.6-6.3-36.8-9.4c-1-0.2-1.9-0.7-2.9-1
		c-2.3-0.6-3.9,0.9-3.3,3.3c0.8,3.4,2.8,6,5.9,7.7c5,2.7,10.4,4.3,16.2,3.9c2.1-0.1,4.1-0.8,6.2-1.3c5-1.1,9.9-0.4,14.8,0.9
		c4.4,1.2,8.6,2.7,13.1,3.8c1.1,0.3,2.3,0.5,3.5,0.7c0.2,0,0.5,0,0.6,0.3c0.1,0.3-0.2,0.5-0.4,0.7c-1.1,1-2.4,1.5-3.9,1.5
		c-22.8,0-45.6,0.1-68.3-0.1c-8.2-0.1-13.8-4.9-15.5-13.4C91.1,49,92.4,43.9,94.5,39c2-4.6,4.6-8.9,8.3-12.4c3-2.9,6.3-4.5,10.7-4.4
		C124.8,22.3,136.2,22.2,147.6,22.1C147.6,22.1,147.6,22.1,147.6,22.1z M131.4,32.6c0.4,0.4,0.8,0.4,1.2,0.5
		c7.3,1.9,14.6,3.8,21.9,5.7c3.8,1,7.5,1.9,11.3,2.9c0.5,0.1,1.2,0.6,1.2-0.5c-0.2-2.8-1-5.3-3.1-7.3c-2.1-2-4.8-3-7.4-3.8
		C147.8,27.2,139.5,28,131.4,32.6z"/>
	<path fill="#C0C0C0" d="M443.9,67.8c-11.5,0-23.1,0-34.6,0c-1.8,0-3.6-0.2-5.4-0.6c-3.8-0.9-6-3.5-7.7-6.8
		c-1.8-3.7-2.7-7.7-2.8-11.8c0-0.9,0.2-1.8,0.4-2.6c0.4-1.4,1.1-1.9,2.6-1.9c2.4-0.1,4.6,0.8,6.9,1.3c3.8,0.9,7.5,2,11.3,3
		c4.5,1.2,8.3,3.3,11,7.2c1.6,2.3,4,3.6,6.6,4.4c8.2,2.6,16.3,2.1,24-1.6c5.2-2.5,9.2-6.4,11.7-11.8c2.7-6,1.1-11.1-4.7-14.2
		c-9-5-18.3-5.2-27.6-0.7c-5,2.4-8.9,6.1-11.7,11c-0.4,0.7-0.8,1.3-1.3,1.8c-0.9,1-2,1.3-3.3,1c-6.9-1.9-13.8-3.9-20.8-5.5
		c-1.7-0.4-2-1.2-1.2-2.8c2.3-4.1,5.2-7.7,8.7-10.8c1.3-1.2,2.6-2.3,3.9-3.3c0.8-0.6,1.6-0.9,2.6-0.9c23.2,0,46.4,0,69.6,0
		c7.4,0,14,6,15,13.4c1.3,9.5-1.7,17.4-8,24.4c-2.3,2.5-4.8,4.7-7.3,7c-0.9,0.8-1.9,1-3,1C467.2,67.9,455.5,67.9,443.9,67.8
		C443.9,67.9,443.9,67.9,443.9,67.8z"/>
	<path fill="#C0C0C0" d="M251.3,22.1c13.1,0,26.1,0,39.2,0c2.3,0,3.1,0.6,3.8,2.7c1.2,3.5,1.1,7.1,0.5,10.7
		c-1.7,9.9-4.2,19.7-6.5,29.5c-0.5,2.2-1.3,2.8-3.5,2.8c-8.2,0-16.3,0-24.5,0c-1,0-1.4-0.1-1.1-1.3c1.9-8.4,3.7-16.8,5.5-25.2
		c0.6-2.7,0.6-5.4-0.7-7.9c-1.3-2.6-3.8-3.7-6.4-4.2c-3.9-0.8-7.8-0.8-11.6,0.2c-5.6,1.5-9.4,5.1-11.7,10.4c-1.9,4.5-2.6,9.3-3.8,14
		c-0.9,3.8-1.7,7.7-2.6,11.5c-0.4,1.8-1.2,2.4-3.1,2.4c-5.7,0-11.4,0-17.1,0c-2.6,0-5.2,0-7.8,0c-1.1,0-1.4-0.2-1.1-1.4
		c1.6-6.7,3.1-13.5,4.6-20.2c1.6-7,3.1-13.9,4.6-20.9c0.6-2.6,1.4-3.3,4.1-3.3C225.1,22.1,238.2,22.1,251.3,22.1z"/>
	<path fill="#C0C0C0" d="M43.3,56.6c2.7-3.8,5.3-7.4,7.9-10.9c4.7-6.6,9.4-13.3,14.2-19.9c1.7-2.4,4.1-3.7,7.2-3.7
		c7.2,0.1,14.5,0,21.7,0.1c1.3,0,1.4,0,0.8,1.3c-1,2.2-2.5,4.1-4.1,5.9c-3.4,3.9-6.4,8-9.6,12C76.2,47.9,71,54.6,65.8,61.2
		c-1.2,1.5-2.3,3.2-3.8,4.6c-1.4,1.4-3.2,2.1-5.1,2.1c-11.9,0-23.8,0-35.8,0c-1.9,0-2.7-0.6-3.3-2.4c-3.8-10.6-7.6-21.2-11.4-31.8
		C5.2,30.3,4,26.8,2.7,23.4c-0.4-1.1-0.1-1.3,0.9-1.3c8.6,0,17.2,0,25.8,0c2.6,0,3.7,0.8,4.5,3.2c2.2,7.2,4.3,14.4,6.5,21.6
		C41.3,50.1,42.3,53.2,43.3,56.6z"/>
	<path fill="#C0C0C0" d="M333.8,60.7c0.5,0.7,1.2,0.9,1.9,0.9c14.3,0,28.6,0,43,0c0.7,0,1.3-0.2,2-0.2c1-0.1,1.6,0.4,1.5,1.4
		c-0.1,1.1-0.1,2.2-0.4,3.2c-0.3,1.1-1,1.8-2.2,1.9c-0.7,0.1-1.4,0.2-2.1,0.2c-25.4,0-50.9,0-76.3,0c-1.9,0-1.9,0-1.8-1.9
		c0.1-5.2,2.5-9,7-11.4c5.9-3.1,11.9-6,17.9-9.1c9-4.7,18-9.6,26.9-14.4c0.8-0.4,1.7-0.7,2.2-1.5c0.3-0.5,0.4-0.9-0.4-0.8
		c-0.3,0-0.6,0-0.9,0c-13.7,0-27.5,0-41.2,0c-1.5,0-1.6-0.1-1.6-1.7c-0.1-2.9,1.6-4.7,4.5-4.9c6.8-0.4,13.5,0.1,20.3,0
		c16.6-0.1,33.2,0,49.8,0c1,0,2-0.2,3-0.4c2-0.4,3,0.4,3,2.4c0,1.7,0.1,3.4-0.4,5c-0.6,1.9-1.8,3.3-3.6,4.2
		c-8.7,4.5-17.4,8.9-26,13.4c-8.5,4.4-17,8.9-25.5,13.3C334.1,60.4,334,60.5,333.8,60.7z"/>
	<path fill="#C0C0C0" d="M458.8,43.9c-0.3,3.1-2.1,5.4-4.7,7.2c-3,1.9-6.4,2.8-9.8,2.8c-3.1,0-6.1-0.7-8.9-2.3
		c-3.2-1.8-3.8-7-1.7-9.9c2-2.8,5-4.1,8.1-4.9c4.6-1.2,9.2-0.8,13.4,1.4C457.3,39.3,458.6,41.2,458.8,43.9z"/>
</g>
</svg>
