<?xml version="1.0" ?><!DOCTYPE svg  PUBLIC '-//W3C//DTD SVG 1.1//EN'  'http://www.w3.org/Graphics/SVG/1.1/DTD/svg11.dtd'><svg id="Layer_1" style="enable-background:new 0 0 1600 1200;" version="1.1" viewBox="0 0 1600 1200" xml:space="preserve" xmlns="http://www.w3.org/2000/svg" xmlns:vectornator="http://vectornator.io" xmlns:xlink="http://www.w3.org/1999/xlink"><style type="text/css">
	.st0{fill:#2552C2;}
	.st1{fill:#080606;}
	.st2{fill:#EFB940;}
	.st3{fill:#A97653;}
	.st4{fill:#FEFFFF;}
	.st5{fill:#2E2543;}
	.st6{fill:#8197E5;}
</style><g><g id="Layer_1_1_"><g><path d="M494.3,571.5c-0.5,0-1-0.4-1-1c0-0.6,0.4-1,1-1l139.3-3.6c0.5,0,1,0.4,1,1c0,0.6-0.4,1-1,1L494.3,571.5      C494.3,571.5,494.3,571.5,494.3,571.5z"/></g><g><path d="M1250.5,964.9c-0.5,0-1-0.4-1-0.9c0-0.6,0.4-1,0.9-1.1c6.3-0.3,13-0.8,19.9-1.5c0.6-0.1,1,0.4,1.1,0.9      c0,0.5-0.4,1-0.9,1.1C1263.6,964,1256.9,964.5,1250.5,964.9C1250.5,964.9,1250.5,964.9,1250.5,964.9z M1290.4,961.3      c-0.5,0-0.9-0.4-1-0.9c-0.1-0.5,0.3-1,0.9-1.1c6.4-0.8,13.1-1.6,19.8-2.6c0.5-0.1,1.1,0.3,1.1,0.9s-0.3,1.1-0.9,1.1      c-6.7,0.9-13.4,1.8-19.9,2.6C1290.5,961.3,1290.4,961.3,1290.4,961.3z M1330.1,955.8c-0.5,0-0.9-0.3-1-0.8      c-0.1-0.5,0.3-1.1,0.8-1.1c6.5-1,13.1-2.2,19.7-3.4c0.5-0.1,1.1,0.3,1.2,0.8c0.1,0.5-0.3,1.1-0.8,1.2      c-6.6,1.2-13.2,2.3-19.8,3.4C1330.2,955.8,1330.1,955.8,1330.1,955.8z M1369.5,948.7c-0.5,0-0.9-0.3-1-0.8      c-0.1-0.5,0.2-1.1,0.8-1.2c6.5-1.3,13.1-2.7,19.6-4.1c0.5-0.1,1.1,0.2,1.2,0.8s-0.2,1.1-0.8,1.2c-6.5,1.4-13.1,2.8-19.6,4.1      C1369.6,948.7,1369.6,948.7,1369.5,948.7z M1408.6,940.1c-0.5,0-0.9-0.3-1-0.8c-0.1-0.5,0.2-1.1,0.7-1.2      c6.5-1.5,13-3.2,19.4-4.8c0.5-0.1,1.1,0.2,1.2,0.7c0.1,0.5-0.2,1.1-0.7,1.2c-6.4,1.6-12.9,3.3-19.5,4.8      C1408.8,940.1,1408.7,940.1,1408.6,940.1z M1447.4,930.1c-0.4,0-0.8-0.3-1-0.7c-0.1-0.5,0.2-1.1,0.7-1.2      c6.5-1.8,12.9-3.7,19.2-5.5c0.5-0.2,1.1,0.1,1.2,0.7s-0.1,1.1-0.7,1.2c-6.3,1.9-12.8,3.8-19.2,5.6      C1447.5,930.1,1447.4,930.1,1447.4,930.1z M1485.7,918.6c-0.4,0-0.8-0.3-1-0.7c-0.2-0.5,0.1-1.1,0.6-1.3      c6.4-2.1,12.8-4.2,19-6.4c0.5-0.2,1.1,0.1,1.3,0.6c0.2,0.5-0.1,1.1-0.6,1.3c-6.2,2.2-12.6,4.3-19,6.4      C1485.9,918.6,1485.8,918.6,1485.7,918.6z M1523.5,905.4c-0.4,0-0.8-0.2-0.9-0.6c-0.2-0.5,0.1-1.1,0.6-1.3      c6.3-2.4,12.6-4.8,18.6-7.3c0.5-0.2,1.1,0,1.3,0.5c0.2,0.5,0,1.1-0.5,1.3c-6.1,2.5-12.3,4.9-18.7,7.3      C1523.8,905.4,1523.6,905.4,1523.5,905.4z M1560.6,890.3c-0.4,0-0.7-0.2-0.9-0.6c-0.2-0.5,0-1.1,0.5-1.3      c6.2-2.8,12.3-5.6,18.1-8.4c0.5-0.2,1.1,0,1.3,0.5c0.2,0.5,0,1.1-0.5,1.3c-5.9,2.9-12,5.7-18.2,8.5      C1560.9,890.3,1560.7,890.3,1560.6,890.3z M1596.6,872.7c-0.4,0-0.7-0.2-0.9-0.5c-0.3-0.5-0.1-1.1,0.4-1.4      c6-3.2,11.8-6.5,17.4-9.9c0.5-0.3,1.1-0.1,1.4,0.3s0.1,1.1-0.3,1.4c-5.5,3.3-11.4,6.7-17.4,9.9      C1596.9,872.7,1596.7,872.7,1596.6,872.7z M1630.8,852.1c-0.3,0-0.6-0.2-0.8-0.4c-0.3-0.5-0.2-1.1,0.3-1.4      c5.7-3.8,11.1-7.8,16.1-11.7c0.4-0.3,1.1-0.3,1.4,0.2c0.3,0.4,0.3,1.1-0.2,1.4c-5.1,4-10.5,7.9-16.2,11.8      C1631.2,852,1631,852.1,1630.8,852.1z M1662.2,827.3c-0.3,0-0.5-0.1-0.7-0.3c-0.4-0.4-0.4-1,0-1.4c5-4.7,9.7-9.5,13.8-14.3      c0.4-0.4,1-0.5,1.4-0.1s0.5,1,0.1,1.4c-4.2,4.8-8.9,9.7-14,14.4C1662.7,827.2,1662.5,827.3,1662.2,827.3z M1688.2,797.1      c-0.2,0-0.4-0.1-0.5-0.2c-0.5-0.3-0.6-0.9-0.3-1.4c3.7-5.6,6.8-11.3,9.3-17.1l0.1-0.3c0.2-0.5,0.8-0.7,1.3-0.5      c0.5,0.2,0.7,0.8,0.5,1.3l-0.1,0.3c-2.5,5.8-5.7,11.7-9.4,17.4C1688.8,796.9,1688.5,797.1,1688.2,797.1z M1702.8,760.3      c0,0-0.1,0-0.1,0c-0.5-0.1-0.9-0.6-0.9-1.1c0.4-3,0.6-6.2,0.6-9.3c0-3.4-0.2-6.9-0.7-10.4c-0.1-0.5,0.3-1,0.9-1.1      c0.5-0.1,1,0.3,1.1,0.9c0.4,3.6,0.7,7.2,0.7,10.6c0,3.2-0.2,6.4-0.6,9.5C1703.8,759.9,1703.3,760.3,1702.8,760.3z M1698.4,720.9      c-0.4,0-0.8-0.3-1-0.7c-1.9-5.9-4.4-12.1-7.4-18.4c-0.2-0.5,0-1.1,0.5-1.3c0.5-0.2,1.1,0,1.3,0.5c3,6.4,5.5,12.6,7.5,18.7      c0.2,0.5-0.1,1.1-0.6,1.3C1698.6,720.9,1698.5,720.9,1698.4,720.9z M1681.4,684.8c-0.3,0-0.7-0.2-0.9-0.5c-3.3-5.4-7-11-11-16.6      c-0.3-0.4-0.2-1.1,0.2-1.4c0.5-0.3,1.1-0.2,1.4,0.2c4,5.7,7.8,11.3,11.1,16.8c0.3,0.5,0.1,1.1-0.3,1.4      C1681.8,684.8,1681.6,684.8,1681.4,684.8z M1658.2,652.2c-0.3,0-0.6-0.1-0.8-0.4c-4-5-8.4-10.1-13-15.2c-0.4-0.4-0.3-1,0.1-1.4      c0.4-0.4,1-0.3,1.4,0.1c4.6,5.1,9,10.3,13,15.3c0.3,0.4,0.3,1.1-0.1,1.4C1658.7,652.2,1658.5,652.2,1658.2,652.2z M1631.6,622.3      c-0.3,0-0.5-0.1-0.7-0.3c-4.5-4.6-9.3-9.4-14.2-14.1c-0.4-0.4-0.4-1,0-1.4c0.4-0.4,1-0.4,1.4,0c4.9,4.7,9.7,9.5,14.2,14.2      c0.4,0.4,0.4,1,0,1.4C1632.1,622.2,1631.8,622.3,1631.6,622.3z M1602.8,594.5c-0.2,0-0.5-0.1-0.7-0.3      c-4.8-4.4-9.8-8.8-14.9-13.2c-0.4-0.4-0.5-1-0.1-1.4c0.4-0.4,1-0.5,1.4-0.1c5.1,4.4,10.2,8.9,15,13.3c0.4,0.4,0.4,1,0.1,1.4      C1603.3,594.4,1603.1,594.5,1602.8,594.5z M1572.5,568.3c-0.2,0-0.4-0.1-0.6-0.2c-5-4.2-10.3-8.4-15.6-12.6      c-0.4-0.3-0.5-1-0.2-1.4c0.3-0.4,1-0.5,1.4-0.2c5.3,4.2,10.6,8.4,15.6,12.6c0.4,0.4,0.5,1,0.1,1.4      C1573.1,568.2,1572.8,568.3,1572.5,568.3z M1541.1,543.5c-0.2,0-0.4-0.1-0.6-0.2c-5.2-4-10.6-8-16.1-11.9      c-0.4-0.3-0.5-1-0.2-1.4c0.3-0.4,0.9-0.5,1.4-0.2c5.4,4,10.8,8,16.1,12c0.4,0.3,0.5,1,0.2,1.4      C1541.7,543.3,1541.4,543.5,1541.1,543.5z M1508.7,519.8c-0.2,0-0.4-0.1-0.6-0.2c-5.4-3.8-11-7.6-16.5-11.4      c-0.5-0.3-0.6-0.9-0.3-1.4c0.3-0.5,0.9-0.6,1.4-0.3c5.5,3.7,11.1,7.6,16.5,11.4c0.5,0.3,0.6,0.9,0.2,1.4      C1509.3,519.7,1509,519.8,1508.7,519.8z M1475.5,497.4c-0.2,0-0.4-0.1-0.5-0.2c-5.6-3.7-11.3-7.3-16.9-10.8      c-0.5-0.3-0.6-0.9-0.3-1.4c0.3-0.5,0.9-0.6,1.4-0.3c5.6,3.5,11.3,7.1,16.9,10.8c0.5,0.3,0.6,0.9,0.3,1.4      C1476.2,497.2,1475.8,497.4,1475.5,497.4z M1441.5,476.1c-0.2,0-0.4,0-0.5-0.1c-6.1-3.6-11.9-7-17.3-10      c-0.5-0.3-0.7-0.9-0.4-1.4c0.3-0.5,0.9-0.7,1.4-0.4c5.5,3.1,11.3,6.4,17.4,10c0.5,0.3,0.6,0.9,0.3,1.4      C1442.2,476,1441.9,476.1,1441.5,476.1z M1406.4,456.7c-0.1,0-0.3,0-0.4-0.1c-2.1-1.1-4.1-2-5.9-2.8c-4.5-2.1-8.5-4.4-11.8-6.8      c-0.4-0.3-0.5-1-0.2-1.4c0.3-0.4,1-0.5,1.4-0.2c3.2,2.4,7,4.6,11.4,6.6c1.8,0.8,3.8,1.8,6,2.9c0.5,0.2,0.7,0.8,0.5,1.3      C1407.2,456.5,1406.8,456.7,1406.4,456.7z M1376.9,431.5c-0.4,0-0.8-0.3-0.9-0.7c-1-3-1.5-6.2-1.5-9.5c0-3.4,0.5-7,1.6-10.7      c0.2-0.5,0.7-0.8,1.2-0.7c0.5,0.2,0.8,0.7,0.7,1.2c-1,3.5-1.5,7-1.5,10.2c0,3.1,0.5,6.1,1.4,8.9c0.2,0.5-0.1,1.1-0.6,1.3      C1377.2,431.5,1377,431.5,1376.9,431.5z M1385.6,393.8c-0.2,0-0.4-0.1-0.5-0.2c-0.5-0.3-0.6-0.9-0.3-1.4      c3.3-5.2,7.5-10.6,12.3-16c0.4-0.4,1-0.4,1.4-0.1c0.4,0.4,0.4,1,0.1,1.4c-4.8,5.3-8.8,10.6-12.1,15.7      C1386.2,393.6,1385.9,393.8,1385.6,393.8z M1411.9,363.8c-0.3,0-0.5-0.1-0.7-0.3c-0.4-0.4-0.3-1,0.1-1.4      c2.5-2.2,4.1-3.6,4.6-3.9l0.6,0.8l0.9-0.3c0.1,0.4,0,0.9-0.3,1.1c-0.3,0.3-2,1.6-4.5,3.9      C1412.4,363.7,1412.2,363.8,1411.9,363.8z"/></g><g><path class="st0" d="M738.9,520.8l122,92l-34.6,117.6c0,0-19,52.7-20.2,77.6c-1.3,24.9,2.7,27.4,2.7,27.4l89.6-4.8      c40.1-70.7,71.5-207,62-278.8c-9.5-71.8-174.7-75.6-174.7-75.6L738.9,520.8z"/></g><g><path class="st1" d="M825,733.6c-3.8,9.3-17.1,56.6-17.1,56.6L883.8,652C870.2,668.8,828.7,724.3,825,733.6z"/></g><g><path class="st0" d="M697.5,452.7l83.4,39.3c0,0,99.7,42.6,112.8,116.7c13.2,74.9-219,273.2-219,273.2l-78-35.6      c0.5-84.5,138.7-224.2,138.7-224.2s-78.9-16.7-139.5-45.4c-65.7-31.2-66.6-117.6-66.6-117.6L697.5,452.7z"/></g><g><path class="st2" d="M827,335.8l-39.3,51.2c0,0-10.2,52.9,1.2,61.4c11.4,8.5,135.7,26.5,135.7,26.5      c-4.9-25.9,19.1-58.3,19.1-58.3l-89.9-6.2l5.4-90.4C834.6,339.7,827,335.8,827,335.8z"/></g><g><path class="st2" d="M867.2,302c1.7-4-13.1-42.6-13.1-42.6c-10.5-3.9-15.3-32.9-15.3-32.9l-17.4-16.9      c-51.1-46.4-76.3,10.6-75.2,24.5c1.2,13.9,19.9,27,30.7,33.8c10.7,6.8,38.6,5.7,38.6,5.7c-11.2,24.9,9.9,64.1,9.9,64.1      C858.1,334.3,865.5,306.1,867.2,302z"/></g><g><path class="st3" d="M928.4,235.3c0,0-2.2,2.1-5.7,29.8c-1.5,11.9-7.6,31.7-16.6,35.1c-12,4.6-27.4-9.5-27.4-9.5l-49.1,42      l-3.7-59.6l26.6-13.5c-2.8-3.8-4.1-14.1,4.2-20c9.4-6.7,13.7,0.3,13.7,0.3l37.9-18.1L928.4,235.3z"/></g><g><path class="st4" d="M835.6,237.2c0,0,16.9-0.4,21.8,2.8c4.9,3.2,5.1-1.3,10.1,8c5,9.3,48,24.1,59.6,12.3      c11.6-11.8,1.3-24,1.3-24s-40-2.4-48.6-2c-8.7,0.4-41.4-8.4-41.4-8.4L835.6,237.2z"/></g><g><path class="st3" d="M802.9,450.9c0,0,10.9,2,16.8,2.9s17.7,0.9,17.7,0.9c13,5.3,5,20.6,5,20.6c6.9,1.6,11.7-0.7,11.7-0.7      c7.9,1.9,11.4-3.3,11.4-3.3c3.3,4.4,8,0.1,8,0.1c6-8.6,1.6-31.6-9.1-39.8s-48.5-10.5-48.5-10.5      C805.4,428,802.9,450.9,802.9,450.9z"/></g><g><path class="st3" d="M958.8,419.7c20.4,8.6,22.6,26.3,20.3,33.2c-2.2,6.9-8.7,2.8-8.7,2.8c-3.8,6-8.8,0.2-8.8,0.2      c-0.2,2-4.1,4.9-7.2,3.5c-3.1-1.4-8.1-16.8-10.7-20.1c-2.7-3.4-11.8-0.1-11.8-0.1c2.1-6.3,11.8-21.8,11.8-21.8L958.8,419.7z"/></g><g><path class="st2" d="M747.7,419.1l67.4,2.3c-22.3,28.6-12.3,71.6-12.3,71.6c-20.3,4.1-101.1-1.8-142.7-10.5      c-41.6-8.7-46.3-21.2-46.3-21.2l-87.6,0.2c0,0,21.7-67,56.8-115.4c35.1-48.4,83.8-78,83.8-78c40.1-26.4,79.5-31.2,79.5-31.2      c9.3,28,68.6,35.9,68.6,35.9C803.6,301,827,336.4,827,336.4C794.4,393.7,747.7,419.1,747.7,419.1z"/></g><g><path d="M801.9,450.8c-4.3,17,1,42.8,1,42.8c6.4-10.9,12.6-39.7,12.6-39.7L801.9,450.8z"/></g><g><path class="st2" d="M1325.2,330.7h131.3v51.7h-131.3V330.7z"/></g><g><path d="M923.1,461.7c-2.6,6.9,1.4,14,1.4,14c7.9,0.2,16.4-17.2,16.4-17.2L923.1,461.7z"/></g><g><path d="M246.2,196.1c-0.5,0-1-0.4-1-1c0-0.6,0.4-1,1-1l224.9-2.5c0.5,0,1,0.4,1,1s-0.4,1-1,1L246.2,196.1      C246.2,196.1,246.2,196.1,246.2,196.1z"/></g><g><path d="M402.5,227.8c-0.5,0-1-0.4-1-1c0-0.6,0.4-1,1-1l67.8-1.5c0.6,0,1,0.4,1,1c0,0.6-0.4,1-1,1L402.5,227.8      C402.5,227.8,402.5,227.8,402.5,227.8z"/></g><g><path class="st2" d="M1468.5,333.8c3.2,0.9,3.2,2.9,3.1,3.8c-0.1,0.8-5.9,3.4-9.8,9.2c-3.8,5.8-5,2.8-5.3,2.3      c-0.4-0.5-7.6-8.9-9.6-9.8c-2.1-1-1.8-2.8-1.8-2.8s5.6-3.2,8.1-5.2c2.5-1.9,4.6-7.8,4.6-7.8      C1458.9,322.6,1463.2,332.3,1468.5,333.8z"/></g><g><path class="st5" d="M1458.5,322.3c-1,0-2.1,0.7-2.8,2l-1.7,3.1c-1,1.8-3.3,4.2-5.2,5.2l-3.1,1.7c-2.7,1.5-2.7,4.2,0,5.7      l3.1,1.7c1.8,1,4.2,3.3,5.2,5.1l1.7,3.1c1.5,2.7,4.2,2.7,5.7,0l1.7-3.1c1-1.8,3.3-4.1,5.2-5.1l3.1-1.7c2.7-1.5,2.7-4.2,0-5.7      l-3.1-1.7c-1.8-1-4.2-3.3-5.2-5.2l-1.7-3.1C1460.6,323,1459.5,322.3,1458.5,322.3z M1458.5,324.3c0.4,0,0.7,0.3,1.1,1l1.7,3.1      c1.2,2.1,3.8,4.8,5.9,5.9l3.1,1.7c1.3,0.7,1.3,1.5,0,2.2l-3.1,1.7c-2.1,1.2-4.8,3.8-5.9,6l-1.7,3.1c-0.7,1.3-1.5,1.3-2.2,0      l-1.7-3.1c-1.2-2.1-3.8-4.8-5.9-6l-3.1-1.7c-1.3-0.7-1.3-1.5,0-2.2l3.1-1.7c2.2-1.2,4.8-3.8,5.9-5.9l1.7-3.1      C1457.7,324.6,1458.1,324.3,1458.5,324.3z"/></g><g><path class="st5" d="M487.2,105.6c-1.2,0.8-1.9,2.3-1.7,4.4l0.4,4.7c0.2,2.8-0.7,7.1-2,9.6l-2.2,4.2c-1.9,3.6,0.1,6.7,4.2,6.4      l4.7-0.4c2.8-0.2,7.2,0.7,9.6,2l4.2,2.2c3.6,1.9,6.7-0.1,6.4-4.2l-0.4-4.7c-0.2-2.8,0.7-7.2,2-9.6l2.2-4.2      c1.9-3.6-0.1-6.7-4.2-6.4l-4.7,0.4c-2.8,0.2-7.1-0.6-9.6-1.9l-4.2-2.2C490,104.8,488.4,104.8,487.2,105.6z M488.7,107.8      c0.4-0.3,1.1-0.2,1.9,0.3l4.2,2.2c2.9,1.5,7.8,2.6,11.1,2.3l4.7-0.4c2-0.2,2.5,0.7,1.6,2.4l-2.2,4.2c-1.5,2.9-2.5,7.8-2.3,11.1      l0.4,4.7c0.2,2-0.7,2.5-2.4,1.6l-4.2-2.2c-2.9-1.5-7.8-2.5-11.1-2.2l-4.7,0.4c-2,0.2-2.5-0.7-1.6-2.4l2.2-4.2      c1.5-2.9,2.5-7.8,2.3-11.1l-0.4-4.7C488.1,108.7,488.3,108.1,488.7,107.8z"/></g><g><path class="st5" d="M226.6,416.1c-1.4-0.3-3,0.3-4.3,1.9l-3,3.6c-1.8,2.1-5.5,4.6-8.2,5.4l-4.5,1.4c-3.9,1.2-4.7,4.9-1.5,7.5      l3.6,3.1c2.1,1.8,4.6,5.5,5.4,8.2l1.4,4.5c1.2,3.9,4.9,4.7,7.5,1.5l3.1-3.6c1.8-2.1,5.5-4.6,8.2-5.4l4.5-1.4      c3.9-1.2,4.7-4.9,1.5-7.5l-3.6-3.1c-2.1-1.8-4.6-5.5-5.4-8.2l-1.4-4.5C229.2,417.5,227.9,416.4,226.6,416.1z M226,418.7      c0.5,0.1,0.9,0.6,1.2,1.6l1.4,4.5c1,3.2,3.7,7.3,6.2,9.5l3.6,3.1c1.5,1.3,1.3,2.3-0.6,2.8l-4.5,1.4c-3.2,1-7.3,3.7-9.4,6.2      l-3.1,3.6c-1.3,1.5-2.3,1.3-2.8-0.6l-1.4-4.5c-1-3.2-3.8-7.3-6.3-9.4l-3.6-3.1c-1.5-1.3-1.3-2.3,0.6-2.8l4.5-1.4      c3.2-1,7.4-3.7,9.5-6.3l3.1-3.6C225,419,225.5,418.6,226,418.7z"/></g><g><path d="M1437.9,363.8h-97.6c-0.6,0-1-0.4-1-1s0.4-1,1-1h97.6c0.6,0,1,0.4,1,1S1438.5,363.8,1437.9,363.8z"/></g><g><g><path class="st2" d="M321.9,403.3c-24.3-1.3-42.9-21.9-41.6-46c1.3-24.1,22.1-42.5,46.4-41.2c24.3,1.3,42.9,21.9,41.6,46       C367,386.2,346.2,404.6,321.9,403.3z"/></g><g><path class="st6" d="M321.9,403.3c-24.3-1.3-42.9-21.9-41.6-46c1.3-24.1,22.1-42.5,46.4-41.2c24.3,1.3,42.9,21.9,41.6,46       C367,386.2,346.2,404.6,321.9,403.3z"/></g><g><path d="M278.4,358.9c-0.2,17.8,10.1,34.9,27.5,42.4c23.1,10.1,50-0.5,60.1-23.7c10.1-23.1-0.5-50-23.6-60.1       c-23.1-10.1-50.1,0.5-60.2,23.6C279.7,346.9,278.4,352.9,278.4,358.9z M281.1,358.9c0.1-5.6,1.2-11.3,3.6-16.7       c9.5-21.8,34.8-31.7,56.6-22.2c21.8,9.5,31.7,34.8,22.2,56.6c-9.5,21.8-34.8,31.7-56.6,22.2       C290.6,391.7,280.9,375.7,281.1,358.9z"/></g><g><path d="M246.9,412.4c0.1,1.2,0.5,2.3,1.2,3.2c8,10.1,46.7-8.5,87.5-40.9c40.8-32.4,67.8-65.9,59.8-75.9       c-5.7-7.2-26.3-0.2-53.6,16.9c-0.6,0.4-0.8,1.2-0.4,1.9c0.4,0.6,1.3,0.8,1.9,0.4c25.9-16.2,45.7-22.8,50-17.4       c6.4,8.1-20,40.9-59.3,72.1c-39.3,31.2-77.3,49.4-83.7,41.4c-4.1-5.1,8-23.9,29.7-45.6c0.5-0.5,0.5-1.4,0-2       c-0.5-0.5-1.4-0.5-1.9,0C258,386.5,245.9,403.8,246.9,412.4z"/></g></g><g><path d="M1059.3,363.3c-10,0-18.1-8.1-18.1-18.1s8.1-18.1,18.1-18.1c10,0,18.1,8.1,18.1,18.1S1069.3,363.3,1059.3,363.3z       M1059.3,329c-8.9,0-16.1,7.2-16.1,16.1s7.2,16.1,16.1,16.1c8.9,0,16.1-7.2,16.1-16.1S1068.2,329,1059.3,329z"/></g><g><path d="M894.8,144.4c-6.6,0-12-5.4-12-12c0-6.6,5.4-12,12-12s12,5.4,12,12C906.8,139.1,901.4,144.4,894.8,144.4z M894.8,122.4      c-5.5,0-10,4.5-10,10c0,5.5,4.5,10,10,10s10-4.5,10-10C904.8,126.9,900.3,122.4,894.8,122.4z"/></g><g><path d="M1603,481.4c-0.6,0-1-0.4-1-1c0-4.8-11.7-12.6-26.6-22.4c-15.8-10.5-35.6-23.5-51.9-39.8c-5.2-5.2-7.3-11.2-6.1-17.8      c5.4-30.2,77-63.5,80-64.9c0.5-0.2,1.1,0,1.3,0.5c0.2,0.5,0,1.1-0.5,1.3c-0.7,0.3-73.7,34.2-78.9,63.4c-1.1,5.9,0.8,11.3,5.5,16      c16.2,16.1,35.8,29.1,51.5,39.5c16.6,10.9,27.5,18.2,27.5,24.1C1604,480.9,1603.6,481.4,1603,481.4z"/></g><g><g><path class="st2" d="M1124.5,161.6c0-20.8,17-37.7,37.9-37.7c21,0,37.9,16.9,37.9,37.7s-17,37.7-37.9,37.7       C1141.5,199.3,1124.5,182.5,1124.5,161.6z"/></g><g><g><path class="st5" d="M1162.8,201.1c-9.5,0-18.5-3.5-25.7-9.9c-7.9-7.1-12.6-17-13.1-27.8v0c-1.1-21.9,15.4-40.6,36.8-41.7        c10.2-0.5,20.1,3,27.7,9.9c7.9,7.1,12.6,17,13.1,27.8c1.1,21.9-15.4,40.6-36.8,41.7C1164.1,201.1,1163.4,201.1,1162.8,201.1z         M1162.8,123.6c-0.6,0-1.3,0-1.9,0.1c-20.3,1.1-36,18.9-34.9,39.6c0,0,0,0,0,0c0.5,10.2,4.9,19.6,12.4,26.4        c7.3,6.6,16.6,9.9,26.3,9.4c20.3-1.1,36-18.9,34.9-39.6c-0.5-10.2-4.9-19.6-12.5-26.4C1180.4,126.9,1171.8,123.6,1162.8,123.6        z"/></g><g><path class="st5" d="M1224.9,197.7c-14.6,0-41.1-8.1-69.2-21.6c-35.7-17.1-69.6-41.2-64.5-52.2c3.6-7.8,27.6-2.9,48.8,4.2        c0.5,0.2,0.8,0.7,0.6,1.3s-0.7,0.8-1.3,0.6c-24.9-8.4-44-10.6-46.4-5.3c-3.5,7.6,21.3,29.3,63.6,49.6        c32.9,15.7,64.4,24.3,75,20.5c1.5-0.5,2.5-1.3,3-2.3c2.6-5.7-10.5-18.7-32.5-32.6c-0.5-0.3-0.6-0.9-0.3-1.4        c0.3-0.5,0.9-0.6,1.4-0.3c24,15,36.4,28.2,33.2,35.1c-0.7,1.5-2.1,2.7-4.1,3.4C1230.3,197.4,1227.8,197.7,1224.9,197.7z"/></g></g></g></g><g id="Layer_2_1_"><g><path d="M837.8,238.4c3.1,14.3,14.9,20.9,14.9,20.9c-5.4-13.4,3.9-19,3.9-19C854.3,238.7,837.8,238.4,837.8,238.4z"/></g><g><path d="M915.3,262.2c-17,0-44.9-3.2-47-12c-3.2-13.2-32.9-11.8-33.2-11.7c-0.3,0-0.6-0.1-0.8-0.3c-0.2-0.2-0.3-0.5-0.3-0.8      c0-0.3,0.3-7,2.9-11.7c0.2-0.4,0.6-0.6,1.1-0.5c0.4,0.1,36.2,6.6,41.8,7.5c5.7,0.9,41.5,2.4,47.1,2.6c3.8,0.1,6.6,6.6,6.7,12.6      c0.1,6.4-2.7,13.5-11.2,14.1C920.4,262.1,918,262.2,915.3,262.2z M838.2,236.3c8.2,0,29,1.2,32,13.3c1.9,8,35.8,11.5,52,10.3      c8.9-0.7,9.4-9.4,9.3-12.1c-0.1-5.8-2.7-10.6-4.8-10.6c-5.6-0.2-41.5-1.7-47.3-2.6c-5.2-0.8-36-6.4-41.1-7.4      c-1.5,3.2-2.1,7.2-2.3,9.1C836.6,236.4,837.4,236.3,838.2,236.3z"/></g><g><path d="M863.5,256.6c-0.5,0-0.9-0.3-1-0.8c0-0.1-1-5.8-3.6-9.8c-0.3-0.5-0.2-1.1,0.3-1.4c0.5-0.3,1.1-0.2,1.4,0.3      c2.8,4.4,3.8,10.3,3.9,10.6c0.1,0.5-0.3,1.1-0.8,1.2C863.6,256.6,863.6,256.6,863.5,256.6z"/></g><g><path d="M925.3,243.7c-9.6,0-41.3-2-41.6-2.1c-0.6,0-1-0.5-0.9-1.1s0.5-1,1.1-0.9c0.3,0,32,2,41.5,2c0.1,0,0.2,0,0.3,0      c0.6,0,1,0.4,1,1c0,0.6-0.4,1-1,1C925.5,243.7,925.4,243.7,925.3,243.7z"/></g><g><path d="M870.4,251.8c1.4,2.5,20.7,7.6,36.6,9.2c11.7,1.2,21.3-1.4,21.3-1.4c-0.9,19.9-62.7,0.1-62.3-3.8      c0.4-3.9-1.5-11.8-1.5-11.8S867.9,247.5,870.4,251.8z"/></g><g><path d="M929.1,237c-0.2,0-0.4-0.1-0.6-0.2c-4.4-2.9-17.3-12.8-20-14.9l-24.9,12c-0.5,0.2-1.1,0-1.3-0.5c-0.2-0.5,0-1.1,0.5-1.3      l25.4-12.3c0.3-0.2,0.7-0.1,1,0.1c0.2,0.1,15.7,12,20.4,15.2c0.5,0.3,0.6,0.9,0.3,1.4C929.7,236.9,929.4,237,929.1,237z"/></g><g><path d="M879,290.5l-11.4,9.9l-6.3-33.3C870.7,286,879,290.5,879,290.5z"/></g><g><path d="M831.5,271.2c-0.2,0-0.4-0.1-0.6-0.2c-2-1.5-49.4-35.9-34.9-59c0.1-0.2,3.4-6.1,10.8-6.8c8.6-0.8,18.8,5.9,30.1,19.9      c0.3,0.4,0.3,1.1-0.1,1.4c-0.4,0.3-1.1,0.3-1.4-0.1c-13.6-16.7-22.9-19.7-28.4-19.2c-6.3,0.6-9.2,5.6-9.3,5.8      c-13.6,21.6,33.8,56,34.3,56.4c0.4,0.3,0.6,0.9,0.2,1.4C832.1,271,831.8,271.2,831.5,271.2z"/></g><g><path d="M815.7,273.1c-0.1,0-0.1,0-0.2,0c-30.2-4.8-64.3-17.2-69.7-37.7c-0.1-0.5,0.2-1.1,0.7-1.2c0.5-0.1,1.1,0.2,1.2,0.7      c5.1,19.5,38.5,31.5,68.1,36.2c0.5,0.1,0.9,0.6,0.8,1.1C816.6,272.8,816.2,273.1,815.7,273.1z"/></g><g><path d="M787.6,387.4c-0.3,0-0.5-0.1-0.7-0.3c-0.4-0.4-0.4-1,0-1.4c24.8-25.2,41.8-52.8,42-53.1c0.3-0.5,0.9-0.6,1.4-0.3      c0.5,0.3,0.6,0.9,0.3,1.4c-0.2,0.3-17.3,28.1-42.2,53.5C788.1,387.3,787.8,387.4,787.6,387.4z"/></g><g><path d="M827.2,339.5c-0.5,0-0.9-0.3-1-0.8c-0.1-0.5,0.2-1.1,0.7-1.2c0.4-0.1,36.9-8.9,38.4-36.5c0-0.6,0.5-1,1.1-0.9      c0.6,0,1,0.5,0.9,1.1c-1.6,29.2-39.6,38.3-40,38.4C827.4,339.5,827.3,339.5,827.2,339.5z"/></g><g><path d="M827.3,336.6c-0.3,0-0.6-0.2-0.8-0.4c-0.2-0.4-24.1-35.9-11.8-64.6c0.2-0.5,0.8-0.7,1.3-0.5c0.5,0.2,0.7,0.8,0.5,1.3      c-11.9,27.6,11.4,62.3,11.6,62.7c0.3,0.5,0.2,1.1-0.3,1.4C827.7,336.6,827.5,336.6,827.3,336.6z"/></g><g><path d="M908.4,281.9c-7.8,0-13.6-3.5-13.9-3.7c-0.5-0.3-0.6-0.9-0.3-1.4c0.3-0.5,0.9-0.6,1.4-0.3c0.1,0,8.1,4.8,17.5,2.9      c0.5-0.1,1.1,0.2,1.2,0.8c0.1,0.5-0.2,1.1-0.8,1.2C911.6,281.8,910,281.9,908.4,281.9z"/></g><g><path d="M815.5,421.4C815.5,421.4,815.4,421.4,815.5,421.4l-104.3-3c-0.4,0-0.7-0.2-0.9-0.6c-0.2-0.4-0.1-0.8,0.2-1.1l86.3-94.4      c0.4-0.4,1-0.4,1.4-0.1c0.4,0.4,0.4,1,0.1,1.4l-84.8,92.8l102.1,2.9c0.6,0,1,0.5,1,1C816.4,421,816,421.4,815.5,421.4z"/></g><g><path d="M614.9,464.3c-0.3,0-0.6-0.1-0.8-0.4c-22.7-26.8,15.8-73.6,43.8-107.7c4.6-5.6,8.9-10.8,12.5-15.5      c28.9-37.1,54.3-53.7,70.6-61.1c17.7-8.1,28.4-7.3,28.9-7.3c0.5,0,1,0.5,0.9,1.1c0,0.6-0.5,1-1.1,0.9c-0.4,0-43-2.5-97.7,67.6      c-3.7,4.7-8,10-12.6,15.6c-27.6,33.6-65.4,79.7-43.8,105.2c0.4,0.4,0.3,1.1-0.1,1.4C615.4,464.3,615.2,464.3,614.9,464.3z"/></g><g><path d="M825.1,733.3c-0.2,0-0.5-0.1-0.7-0.2c-0.4-0.4-0.5-1-0.1-1.4c47.6-54.9,70.5-94.7,67.9-118.4      c-3.9-36.9-32.2-66.9-55.2-85.6c-25-20.3-49.4-32-49.7-32.1c-0.5-0.2-0.7-0.8-0.5-1.3c0.2-0.5,0.8-0.7,1.3-0.5      c0.2,0.1,24.8,11.9,50,32.3c23.3,18.9,51.9,49.4,55.9,87c2.6,24.2-20.5,64.6-68.4,119.9C825.6,733.1,825.3,733.3,825.1,733.3z"/></g><g><path d="M847.6,476.7c-1.5,0-3.4-0.3-5.7-1.1c-0.3-0.1-0.5-0.3-0.6-0.5c-0.1-0.3-0.1-0.5,0-0.8c0-0.1,4-9.9-0.1-15.7      c-2.3-3.3-6.9-4.7-13.7-4.2c-13,1-24.7-2.7-25.2-2.9c-0.5-0.2-0.8-0.7-0.7-1.3s0.7-0.8,1.3-0.7c0.1,0,11.9,3.7,24.4,2.8      c7.5-0.6,12.6,1.1,15.4,5c4,5.5,1.7,13.7,0.7,16.6c6.3,1.8,7.7-0.6,7.7-0.7c0.1-0.3,0.3-0.5,0.6-0.5c0.3-0.1,0.5-0.1,0.8,0      c7.4,3.4,11-1.3,11-1.3c0.3-0.4,0.8-0.5,1.2-0.3c3.7,1.7,6.5,1.3,8.4-1.3c5.1-7.1,1.9-26.1-5.8-34.5      c-10.8-11.8-51.9-13.6-52.3-13.7c-0.6,0-1-0.5-1-1c0-0.6,0.5-1,1-1c1.7,0.1,42.3,1.9,53.7,14.3c8.4,9.2,11.6,29.2,6,37.1      c-2.3,3.2-5.9,4-10.2,2.2c-1.4,1.4-5.5,4.4-12.1,1.7C851.7,475.8,850.3,476.7,847.6,476.7z"/></g><g><path d="M832.1,478.2c-6.9,0-12.6-5.7-12.6-12.7s5.6-12.7,12.6-12.7s12.6,5.7,12.6,12.7S839.1,478.2,832.1,478.2z M832.1,454.8      c-5.8,0-10.6,4.8-10.6,10.7s4.8,10.7,10.6,10.7s10.6-4.8,10.6-10.7S838,454.8,832.1,454.8z"/></g><g><path d="M979.6,454.5c-0.6,0-1-0.4-1-1s0.4-1,1-1c4.8,0,8.6-3.9,8.6-8.7c0-4.8-3.9-8.7-8.6-8.7c-1.4,0-2.7,0.3-3.9,1      c-0.5,0.3-1.1,0.1-1.3-0.4c-0.3-0.5-0.1-1.1,0.4-1.3c1.5-0.8,3.1-1.2,4.8-1.2c5.9,0,10.6,4.8,10.6,10.7      C990.2,449.6,985.4,454.5,979.6,454.5z"/></g><g><path d="M853,474.9c-0.1,0-0.2,0-0.3,0c-0.5-0.2-0.8-0.7-0.7-1.3c3-9.6,2.9-17.1-0.3-22.2c-3.2-5.2-8.5-6.1-8.5-6.1      c-0.5-0.1-0.9-0.6-0.8-1.2c0.1-0.5,0.6-0.9,1.1-0.8c0.3,0,6.2,1.1,9.9,7c3.5,5.7,3.7,13.7,0.5,23.9      C853.8,474.6,853.4,474.9,853,474.9z"/></g><g><path d="M864.2,472.8c-0.1,0-0.2,0-0.4-0.1c-0.5-0.2-0.8-0.8-0.6-1.3c9.5-24.4-8.9-33.8-9.1-33.9c-0.5-0.2-0.7-0.8-0.5-1.3      c0.2-0.5,0.8-0.7,1.3-0.5c0.2,0.1,20.2,10.3,10,36.4C865,472.6,864.6,472.8,864.2,472.8z"/></g><g><path d="M875.7,468.4c-0.5,0-0.9-0.4-1-0.9c-0.1-0.5,0.3-1.1,0.9-1.1l76-10.7c0.5-0.1,1.1,0.3,1.1,0.9c0.1,0.5-0.3,1.1-0.9,1.1      l-76,10.7C875.8,468.4,875.8,468.4,875.7,468.4z"/></g><g><path d="M875.1,448.5c-0.5,0-0.9-0.4-1-0.9c-0.1-0.5,0.3-1.1,0.9-1.1l66.1-8.8c0.6-0.1,1,0.3,1.1,0.9s-0.3,1.1-0.9,1.1      l-66.1,8.8C875.2,448.5,875.2,448.5,875.1,448.5z"/></g><g><path d="M1062.7,879c-0.4,0-0.8-0.2-0.9-0.6L895.3,465c-0.2-0.5,0-1.1,0.6-1.3c0.5-0.2,1.1,0,1.3,0.6l166.4,413.4      c0.2,0.5,0,1.1-0.6,1.3C1062.9,879,1062.8,879,1062.7,879z"/></g><g><path d="M1053.7,1052.2c-108.2,0-196.3-88.1-196.3-196.3c0-108.2,88.1-196.3,196.3-196.3c108.2,0,196.3,88.1,196.3,196.3      C1250,964.1,1161.9,1052.2,1053.7,1052.2z M1053.7,661.6c-107.1,0-194.3,87.2-194.3,194.3c0,107.1,87.2,194.3,194.3,194.3      c107.1,0,194.3-87.2,194.3-194.3C1248,748.8,1160.8,661.6,1053.7,661.6z"/></g><g><path d="M326.4,1052.2c-108.2,0-196.3-88.1-196.3-196.3c0-108.2,88.1-196.3,196.3-196.3c108.2,0,196.3,88.1,196.3,196.3      C522.7,964.1,434.6,1052.2,326.4,1052.2z M326.4,661.6c-107.1,0-194.3,87.2-194.3,194.3c0,107.1,87.2,194.3,194.3,194.3      c107.1,0,194.3-87.2,194.3-194.3C520.7,748.8,433.5,661.6,326.4,661.6z"/></g><g><path d="M619.6,775.5c-0.4,0-0.8-0.3-1-0.7l-66.4-203.9c-0.2-0.5,0.1-1.1,0.6-1.3c0.5-0.2,1.1,0.1,1.3,0.6l66.4,203.9      c0.2,0.5-0.1,1.1-0.6,1.3C619.9,775.5,619.8,775.5,619.6,775.5z"/></g><g><path d="M316.5,849.3c-0.2,0-0.5-0.1-0.7-0.3c-0.4-0.4-0.4-1-0.1-1.4l239.9-261.1c0.4-0.4,1-0.4,1.4-0.1c0.4,0.4,0.4,1,0.1,1.4      L317.2,848.9C317,849.2,316.7,849.3,316.5,849.3z"/></g><g><path d="M879,574.8c-0.3,0-0.5-0.1-0.7-0.3c-0.4-0.4-0.4-1,0-1.4l43.3-43.9c0.4-0.4,1-0.4,1.4,0c0.4,0.4,0.4,1,0,1.4l-43.3,43.9      C879.5,574.7,879.3,574.8,879,574.8z"/></g><g><path d="M689.8,1009.8c-0.5,0-1.1,0-1.6-0.1c-7.2-1-28.3-21.2-55.1-47.5c-11.9-11.7-22.2-21.8-26.1-24.4      c-10.6-7.2-61.4-33-61.9-33.2c-0.3-0.1-0.5-0.4-0.5-0.7c-0.1-0.3,0-0.6,0.2-0.8l50.9-60.1c0.4-0.4,1-0.5,1.4-0.1      c0.4,0.4,0.5,1,0.1,1.4l-50.1,59.1c7.8,3.9,51,26,61,32.8c4,2.7,14.4,12.9,26.4,24.7c19.8,19.4,46.8,45.9,54,47      c10.1,1.5,14.9-14.6,15.5-16.7c-1.4-5.4-23.9-95.1-30.9-108.7c-0.3-0.5-0.1-1.1,0.4-1.3c0.5-0.3,1.1-0.1,1.3,0.4      c7.3,14.2,30.1,105.5,31.1,109.4c0,0.2,0,0.3,0,0.5C705.9,992,701.2,1009.8,689.8,1009.8z"/></g><g><path d="M965.9,938.4c-10.6,0-36-7.1-67.4-16.1c-16-4.6-29.9-8.6-34.6-9.1c-12.8-1.3-69.7,0.2-70.3,0.2c-0.3,0-0.6-0.1-0.8-0.4      c-0.2-0.2-0.3-0.5-0.2-0.8l16.2-77.1c0.1-0.5,0.6-0.9,1.2-0.8c0.5,0.1,0.9,0.6,0.8,1.2l-16,75.8c8.7-0.2,57.3-1.3,69.3-0.1      c4.8,0.5,18.8,4.5,34.9,9.2c26.6,7.7,63,18.2,69.8,15.7c9.6-3.5,6.2-19.9,5.7-22.1c-3.8-4.2-66.2-72.4-78.8-81      c-0.5-0.3-0.6-0.9-0.3-1.4c0.3-0.5,0.9-0.6,1.4-0.3c13.1,9,76.6,78.6,79.3,81.5c0.1,0.1,0.2,0.3,0.2,0.4      c0.2,0.8,5,20.3-6.9,24.7C968.8,938.3,967.5,938.4,965.9,938.4z"/></g><g><path d="M702.1,999c-0.2,0-0.5-0.1-0.7-0.2c-0.7-0.6-65.9-57-82.5-73.8c-16.3-16.5-64.1-31.2-64.6-31.3      c-0.5-0.2-0.8-0.7-0.7-1.2s0.7-0.8,1.2-0.7c2,0.6,48.8,14.9,65.5,31.8c16.5,16.7,81.7,73.1,82.3,73.7c0.4,0.4,0.5,1,0.1,1.4      C702.6,998.9,702.3,999,702.1,999z"/></g><g><path d="M976.3,922.1c-0.1,0-0.1,0-0.2,0c-0.8-0.2-85.1-18.9-107.6-25.8c-22.2-6.8-71.2,3-71.7,3.1c-0.5,0.1-1.1-0.2-1.2-0.8      c-0.1-0.5,0.2-1.1,0.8-1.2c2-0.4,50-10,72.7-3.1c22.4,6.9,106.6,25.5,107.5,25.7c0.5,0.1,0.9,0.7,0.8,1.2      C977.2,921.8,976.7,922.1,976.3,922.1z"/></g><g><path d="M599.8,910.4c-0.1,0-0.1,0-0.2,0c-0.5-0.1-0.9-0.6-0.8-1.2c4.3-22.4-15.9-47.1-16.1-47.3c-0.4-0.4-0.3-1.1,0.1-1.4      c0.4-0.4,1.1-0.3,1.4,0.1c0.9,1,21,25.6,16.5,49C600.7,910.1,600.3,910.4,599.8,910.4z"/></g><g><path d="M844.2,892.6c-0.4,0-0.8-0.3-1-0.7c-6.9-21.8-36.4-33.9-36.7-34c-0.5-0.2-0.8-0.8-0.6-1.3c0.2-0.5,0.8-0.8,1.3-0.6      c1.2,0.5,30.6,12.6,37.8,35.2c0.2,0.5-0.1,1.1-0.7,1.3C844.4,892.6,844.3,892.6,844.2,892.6z"/></g><g><path d="M585.6,983.8c-0.3,0-0.5-0.1-0.7-0.3c-0.2-0.2-0.3-0.5-0.3-0.7c0.1-2.2,0.9-21.3,3-24.8c2.1-3.5,25.3-10.9,30-12.3      c0.5-0.2,1.1,0.1,1.3,0.7c0.2,0.5-0.1,1.1-0.7,1.3c-11.2,3.5-27.6,9.4-28.8,11.5c-1.3,2.2-2.3,14.5-2.7,22.8l67.1-1.3      c0.5,0,1,0.4,1,1s-0.4,1-1,1L585.6,983.8C585.6,983.8,585.6,983.8,585.6,983.8z"/></g><g><path d="M826.2,956.5c-0.2,0-0.5-0.1-0.6-0.2c-0.2-0.2-0.3-0.4-0.4-0.7c-0.1-2.2-1.2-21.3,0.6-25c1.8-3.7,25.6-14.2,30.3-16.3      c0.2-0.1,0.5-0.1,0.7,0l33.5,10.5c0.4,0.1,0.6,0.4,0.7,0.8l4,21.8c0,0.3,0,0.6-0.2,0.8c-0.2,0.2-0.4,0.4-0.7,0.4l-67.7,8      C826.3,956.5,826.3,956.5,826.2,956.5z M856.6,916.3c-13.6,5.9-28,13.1-29,15.1c-1.1,2.3-0.9,14.6-0.4,23l65.6-7.7l-3.7-20.1      L856.6,916.3z"/></g><g><path d="M956.8,460.8c-1.6,0-2.8-0.9-3.6-1.4c-0.2-0.1-0.4-0.3-0.5-0.3c-3.1-1.2-4-5.1-4.9-9.2c-0.7-3-1.4-6-2.9-8.1      c-4.1-5.5-14-1-14.1-0.9c-0.4,0.2-0.8,0.1-1.1-0.2c-0.3-0.3-0.4-0.7-0.2-1.1c6.1-13.2,12.7-23.1,12.8-23.2      c0.2-0.3,0.6-0.5,0.9-0.4c15,1.2,19.9,3.1,27.8,10.8c8.5,8.3,11.9,20.8,7.6,28.3c-1.1,1.9-2.4,2.9-4,3.1      c-1.6,0.2-3.1-0.7-4.1-1.5c-0.5,1.2-1.2,2-2.3,2.5c-2.3,1-5.3-0.3-6.7-1.1c-1.1,1.5-2.3,2.4-3.6,2.7      C957.4,460.8,957.1,460.8,956.8,460.8z M938.5,437.1c2.9,0,5.9,0.8,7.9,3.5c1.8,2.4,2.5,5.6,3.3,8.8c0.8,3.6,1.6,7,3.7,7.8l0,0      c0.3,0.1,0.6,0.3,0.9,0.5c0.8,0.5,1.8,1.3,3,1c1-0.2,1.9-1.1,2.8-2.6c0.1-0.2,0.4-0.4,0.6-0.5c0.3-0.1,0.5,0,0.8,0.1      c1,0.7,3.9,2.2,5.7,1.4c0.8-0.4,1.3-1.3,1.6-2.7c0.1-0.4,0.3-0.7,0.7-0.8c0.4-0.1,0.8,0,1,0.3c0.5,0.6,2.2,2.2,3.7,2      c0.9-0.1,1.8-0.8,2.5-2.1c3.3-5.9,1.5-17.4-7.2-25.9c-7.4-7.3-11.9-9-26-10.2c-1.3,2-6.3,9.9-11.3,20.2      C933.9,437.6,936.2,437.1,938.5,437.1z"/></g><g><path d="M923.7,476.2c-0.1,0-0.1,0-0.2,0l-43.6-8.4c-0.5-0.1-0.9-0.6-0.8-1.2c0.1-0.5,0.6-0.9,1.2-0.8l41.5,8      c-0.7-2.1-1-6.1,0.6-13.5c0.1-0.5,0.7-0.9,1.2-0.8c0.5,0.1,0.9,0.6,0.8,1.2c-2.5,11.4,0,13.7,0,13.7c0.4,0.3,0.5,0.8,0.3,1.2      C924.5,476,924.1,476.2,923.7,476.2z"/></g><g><path d="M961.2,457.2c-0.5,0-1-0.4-1-1c-0.8-23.1-15.1-25.8-15.7-25.9c-0.5-0.1-0.9-0.6-0.8-1.2c0.1-0.5,0.6-0.9,1.1-0.8      c0.2,0,16.6,3.1,17.4,27.8C962.2,456.7,961.8,457.2,961.2,457.2C961.2,457.2,961.2,457.2,961.2,457.2z"/></g><g><path d="M969.9,455.7C969.9,455.7,969.9,455.7,969.9,455.7c-0.6,0-1-0.5-1-1c0.9-24.8-16.5-30.9-17.2-31.2      c-0.5-0.2-0.8-0.7-0.6-1.3c0.2-0.5,0.7-0.8,1.3-0.6c0.2,0.1,19.6,6.8,18.6,33.2C970.9,455.2,970.5,455.7,969.9,455.7z"/></g><g><path class="st4" d="M637.5,863.4c-0.3,0-0.5-0.1-0.7-0.3c-0.4-0.4-0.4-1,0-1.4c25.6-25.8,176.1-237.1,178.9-247      c-4.4-15.4-30.3-26.6-63-40.8c-24.8-10.8-52.9-23-78.7-40c-29.9-19.8-50.6-42.1-63.3-68.4c-0.2-0.5,0-1.1,0.5-1.3      c0.5-0.2,1.1,0,1.3,0.5c28.3,58.5,90.8,85.6,141,107.4c33.3,14.5,59.6,25.9,64.2,42.2c0.2,0.8,0.6,2.1-23.9,37.6      c-14.6,21.3-34.8,50-55.4,78.6C699,785.6,652,849.2,638.2,863.1C638,863.3,637.7,863.4,637.5,863.4z M815.7,614.9L815.7,614.9      L815.7,614.9z M815.7,614.7L815.7,614.7C815.7,614.7,815.7,614.7,815.7,614.7z"/></g><g><path d="M690.1,933.3c-0.1,0-0.3,0-0.4-0.1c-3.6-1.6-35.5-15.6-36.9-22.9c-0.2-1,0.1-1.9,0.8-2.6c6.3-6.1,29.5,7.5,32.2,9      c0.5,0.3,0.6,0.9,0.3,1.4c-0.3,0.5-0.9,0.6-1.4,0.3c-9.4-5.6-25.8-13.1-29.8-9.3c-0.2,0.2-0.3,0.5-0.3,0.8      c0.9,4.7,22.4,15.6,35.7,21.4c0.5,0.2,0.7,0.8,0.5,1.3C690.8,933.1,690.4,933.3,690.1,933.3z"/></g><g><path d="M912.8,870.9c-9.6,0-19.2-0.8-21.5-3.6c-0.6-0.8-0.8-1.7-0.5-2.7c2.6-8.4,29.5-7.5,32.6-7.3c0.6,0,1,0.5,1,1      c0,0.6-0.5,1-1,1c-11-0.5-29,0.7-30.6,5.9c-0.1,0.3-0.1,0.6,0.2,0.8c3,3.7,27.1,3.1,41.6,1.9c0.6-0.1,1,0.4,1.1,0.9      c0,0.6-0.4,1-0.9,1.1C932.6,870.1,922.7,870.9,912.8,870.9z"/></g><g><path d="M835,415.1c-0.5,0-0.9-0.3-1-0.8c-0.1-0.5,0.3-1.1,0.8-1.2l18.1-3c0.5-0.1,1.1,0.3,1.2,0.8c0.1,0.5-0.3,1.1-0.8,1.2      l-18.1,3C835.1,415.1,835.1,415.1,835,415.1z"/></g><g><path d="M876.2,467.3l5.7-1.3c1-9.8-6.4-18.5-6.4-18.5C877.5,452.8,876.2,467.3,876.2,467.3z"/></g><g><path d="M827.5,337.8l-20.5,28l-19.4,22l-3.3,23.6l46.4-73.1L827.5,337.8z"/></g><g><path d="M776.4,459.4C776.4,459.4,776.4,459.4,776.4,459.4c-4.4-0.1-106.9-3.5-127.8-16.8c-2.3-1.4-3.6-3.7-4-6.6      c-2-15.7,24.6-53.1,79.1-111.2c21.1-22.5,51-29.3,51.3-29.3c0.5-0.1,1.1,0.2,1.2,0.8c0.1,0.5-0.2,1.1-0.8,1.2      c-0.3,0.1-29.6,6.7-50.3,28.8c-67.3,71.8-79.9,99.2-78.6,109.6c0.3,2.3,1.3,4,3.1,5.1c20.4,13,125.7,16.5,126.7,16.5      c0.6,0,1,0.5,1,1C777.4,459,777,459.4,776.4,459.4z"/></g><g><path class="st4" d="M658.5,522.3c-0.1,0-0.2,0-0.3-0.1c-0.5-0.2-0.8-0.8-0.6-1.3c0.1-0.2,7.7-21.4-1.1-37.9      c-0.3-0.5-0.1-1.1,0.4-1.4c0.5-0.3,1.1-0.1,1.4,0.4c9.2,17.3,1.5,38.6,1.2,39.5C659.3,522.1,658.9,522.3,658.5,522.3z"/></g><g><path d="M1114.6,867.9c-0.5,0-0.9-0.3-1-0.8c-0.1-0.5,0.3-1.1,0.8-1.1c10.1-1.6,20.5-3.3,31.1-5      c159-25.3,376.8-59.9,413.2-125.5c6.3-11.4,6.8-23.5,1.6-35.9c-32.4-76.9-137.3-127.5-229.9-172.1      c-98.9-47.7-184.3-88.8-158.1-149.5c11.6-26.8,42.1-50.1,90.7-69.2c38.8-15.2,89.1-27.9,149.5-37.6      c102.9-16.5,200.9-18.9,201.9-18.9c0,0,0,0,0,0c0.5,0,1,0.4,1,1c0,0.6-0.4,1-1,1c-1,0-98.9,2.4-201.7,18.9      c-60.3,9.7-110.5,22.3-149.1,37.5c-48.1,18.9-78.2,41.8-89.6,68.1c-25.4,58.9,59.2,99.7,157.1,146.9      c92.9,44.8,198.1,95.5,230.8,173.1c5.5,13.1,4.9,25.7-1.7,37.7c-36.9,66.4-255.2,101.1-414.7,126.5c-10.7,1.7-21.1,3.4-31.1,5      C1114.7,867.9,1114.6,867.9,1114.6,867.9z"/></g><g><path d="M1599.9,1051.2H1096c-0.6,0-1-0.4-1-1V160.9c0-0.6,0.4-1,1-1h25.4c0.6,0,1,0.4,1,1s-0.4,1-1,1H1097v887.4h501.9V161.9      l-392.5-0.2c-0.6,0-1-0.4-1-1s0.4-1,1-1l0,0l393.5,0.2c0.6,0,1,0.4,1,1v889.4C1600.9,1050.8,1600.4,1051.2,1599.9,1051.2z"/></g><g><path d="M1394.8,815.2c-0.5,0-1-0.4-1-1l-4.5-433.6c0-0.6,0.4-1,1-1c0,0,0,0,0,0c0.5,0,1,0.4,1,1l4.5,433.6      C1395.9,814.7,1395.4,815.2,1394.8,815.2C1394.9,815.2,1394.9,815.2,1394.8,815.2z"/></g><g><path d="M-5.7,1052.6c-0.6,0-1-0.4-1-1s0.4-1,1-1l1119-1.3h0c0.6,0,1,0.4,1,1s-0.4,1-1,1L-5.7,1052.6      C-5.7,1052.6-5.7,1052.6-5.7,1052.6z"/></g><g><path d="M868.6,204.3c8.3-9.4,41.4-13,54.9-1.2c13.5,11.8,5.8,33.1,5.8,33.1l-21.7-15.8l-24,13.7l-44.4-8.4      C844.4,200.5,868.6,204.3,868.6,204.3z"/></g><g><path d="M754.3,970.3c-29.1,0-52.7-23.7-52.7-52.7c0-29.1,23.6-52.7,52.7-52.7s52.7,23.6,52.7,52.7      C807.1,946.6,783.4,970.3,754.3,970.3z M754.3,866.8c-28,0-50.7,22.8-50.7,50.7c0,28,22.8,50.7,50.7,50.7s50.7-22.8,50.7-50.7      C805.1,889.6,782.3,866.8,754.3,866.8z"/></g><g><path d="M688.3,941.8c-0.4,0-0.8-0.2-0.9-0.6c-0.2-0.5,0-1.1,0.6-1.3l64.1-25.3c0.1,0,0.2-0.1,0.4-0.1h103.4c0.6,0,1,0.4,1,1      s-0.4,1-1,1H752.6l-64,25.2C688.5,941.7,688.4,941.8,688.3,941.8z"/></g></g></g></svg>