<?xml version="1.0" encoding="utf-8"?>
<!-- Generator: Adobe Illustrator 18.0.0, SVG Export Plug-In . SVG Version: 6.00 Build 0)  -->
<!DOCTYPE svg PUBLIC "-//W3C//DTD SVG 1.1//EN" "http://www.w3.org/Graphics/SVG/1.1/DTD/svg11.dtd">
<svg version="1.1" id="Capa_1" xmlns="http://www.w3.org/2000/svg" xmlns:xlink="http://www.w3.org/1999/xlink" x="0px" y="0px"
	 viewBox="0 0 500 90" enable-background="new 0 0 500 90" xml:space="preserve">
<g>
	<path fill="#BFBFBF" d="M146,74.3c-9.6,0.2-19.2-0.9-28.7-3.1c-1.7-0.4-3.3-1-4.9-1.8c-4.5-2.3-6.4-6.5-5.2-11.4
		c0.8-3.3,2.6-6.1,4.2-8.9c3-5.2,6.7-10,11-14.2c7.5-7.3,16.4-12.2,26.5-15c5.4-1.5,11-2.1,16.5-2.8c9.8-1.3,19.6-1.7,29.4-1.4
		c8.4,0.3,16.6,1.2,24.7,3.5c5.3,1.5,8.8,5.9,8.5,10.6c-0.2,3.1-1.6,5.8-3.1,8.5c-3.6,6.3-7.9,12.1-13.2,17.2
		c-7.2,6.9-15.5,11.6-25.1,14.2c-5.7,1.6-11.6,2.3-17.5,3C161.6,73.8,153.9,74.5,146,74.3z M156.5,59.4c4.1,0.1,8.2,0.1,12.2-0.6
		c12.2-2.1,20-9.7,25.2-20.4c1.4-3,0-5.8-3.1-6.8c-1.5-0.5-3.1-0.6-4.6-0.6c-2.1-0.1-4.1,0.2-6.2,0.2c-2.9-0.1-5.8-0.5-8.8-0.2
		c-3.2,0.2-6.4,0.7-9.4,1.7c-6.1,1.9-11.1,5.6-15.3,10.4c-1.9,2.2-3.5,4.5-4.8,7.1c-0.7,1.4-1.2,2.9-1,4.5c0.3,2.3,2.3,3.8,5.2,4.3
		C149.4,59.4,153,59.4,156.5,59.4z"/>
	<path fill="#BFBFBF" d="M343.6,30.9c-9.3,0-18.5,0-27.6,0c-0.5,0-1.3,0.3-1.5-0.2c-0.3-0.5,0.4-0.9,0.7-1.3
		c2.6-3.6,5.3-7.2,7.9-10.8c0.8-1.1,1.9-1.7,3.2-1.8c2.3-0.3,4.5-0.5,6.8-0.1c0.4,0.1,0.8,0,1.3,0c27.3,0,54.6,0,81.9,0
		c0.5,0,1,0,1.7,0c-0.5,1.3-1.5,2.2-2.2,3.3c-1.9,2.7-3.8,5.3-5.7,8c-1.4,2-3.3,2.9-5.6,2.9c-7.4,0-14.7,0.1-22.1,0
		c-3.1-0.1-5.2,1.1-7,3.6c-6.2,8.7-12.6,17.3-18.8,25.9c-2.1,2.9-4.2,5.8-6.3,8.7c-2.3,3.3-5.3,5-9.5,5c-8.9-0.1-17.8,0-26.8-0.1
		c-0.4,0-0.9,0.2-1.1-0.2c-0.2-0.4,0.2-0.8,0.5-1.1c5.8-8,11.7-16,17.5-24.1c4.1-5.7,8.3-11.4,12.4-17.1
		C343.4,31.5,343.4,31.3,343.6,30.9z"/>
	<path fill="#BFBFBF" d="M284.7,59.3c8.1,0,16.2,0,24.2,0c0.4,0,0.8-0.2,1.1,0.2c0.2,0.4-0.2,0.7-0.4,1c-2.1,3.3-4.1,6.6-7,9.3
		c-3.1,2.9-6.7,4.5-11,4.5c-5.7,0-11.4-0.5-17.1-0.7c-2.5-0.1-4.9-0.1-7.4,0c-12.1,0-24.1,0-36.2,0c-3,0-5.8-0.8-8.5-2.3
		c-3.8-2.1-4.9-5.7-3-9.7c1.5-3.2,3.9-5.9,5.9-8.8c7.7-10.6,15.4-21.2,23.1-31.9c2.2-3.1,5-4.7,8.9-4.7c9,0.1,18.1,0,27.2,0.1
		c0.4,0,1-0.2,1.2,0.2c0.2,0.5-0.3,0.8-0.5,1.2c-8.4,11.6-16.8,23.2-25.2,34.7c-0.8,1.1-1.7,2-2.4,3.1c-1,1.4-0.4,3.1,1.2,3.7
		c0.9,0.3,1.7,0.3,2.6,0.3C269.2,59.4,277,59.4,284.7,59.3C284.7,59.4,284.7,59.3,284.7,59.3z"/>
	<path fill="#C0C0C0" d="M465.3,74.1c-4.4,0-8,0-11.7,0c-0.3,0-0.8,0.2-1-0.1c-0.2-0.4,0.2-0.7,0.4-1c2.7-4,4.5-8.3,5.3-13
		c0.7-4.7,0.1-9.3-1.3-13.9c-1.2-4.1-3.2-7.9-5.1-11.7c-2.2-4.7-3.2-9.7-3.9-14.7c-0.3-1.9,1-3.1,3.3-3.1c3.8,0,7.6,0.3,11.4,0.2
		c2.7-0.1,5.4-0.1,8.1-0.2c1.2,0,2.5,0.2,3.6,0.6c1.3,0.4,2.4,1.2,3.1,2.5c3.4,6.5,6.8,13.1,9.2,20.1c1.5,4.3,2.3,8.7,2.7,13.2
		c0.5,5.5-1,10.5-2.9,15.5c-1.5,3.8-4.6,5.1-8.4,5.5C473.6,74.2,469.1,74,465.3,74.1z"/>
	<path fill="#BFBFBF" d="M47.5,16.4c-1.5,2.4-2.9,4.7-3.9,7.2c-2.3,5.7-2.6,11.6-1.3,17.6c1,4.7,3,9,5.2,13.3
		c2.7,5.2,4.3,10.7,4.4,16.6c0,2-0.7,2.9-2.7,2.7c-3-0.3-5.9-0.1-8.9-0.1c-4.1-0.1-8.2,0-12.3,0c-2.6,0-4.5-1.2-5.7-3.6
		c-3.3-6.5-6.7-13-9-20c-1.6-4.9-3-9.9-2.8-15.1c0.1-4,1.3-7.8,2.8-11.5c0.8-1.9,1.6-3.7,2.7-5.4c0.7-1.2,1.8-1.8,3.1-1.8
		c9.3,0,18.6,0,27.9,0C47.1,16.2,47.2,16.3,47.5,16.4z"/>
	<path fill="#C0C0C0" d="M113.2,15.9c5.2,0.5,10.4,0.3,15.6,0.3c0.3,0,0.6-0.1,0.8,0.1c0.2,0.3-0.2,0.5-0.3,0.7
		c-6.1,7.2-12.8,13.8-20,19.8c-11.5,9.7-24,18-36.5,26.2c-5,3.3-10,6.6-15,9.9c-0.8,0.5-1.2,0.8-1.4-0.5c-0.5-4-1-8-2.2-11.9
		c-0.5-1.6-1.1-3.2-1.8-4.7c-1-2.4-0.7-3.4,1.5-4.9c5.2-3.4,10.5-6.7,15.7-10.2c6.7-4.5,13.2-9.2,19-14.9c4.7-4.7,10.2-8,16.8-9.2
		C108,16.1,110.6,15.9,113.2,15.9z"/>
	<path fill="#C0C0C0" d="M386.8,74c-2,0-4-0.3-6.1-0.2c-2.2,0.1-4.5,0.2-6.7,0.2c-0.8,0-1.9,0.1-2.2-0.5c-0.4-0.8,0.5-1.4,1-2
		c3.8-5.1,8.5-9.5,13.2-13.8c5.5-5,11.3-9.7,17.2-14.3c7.5-5.8,15.1-11.3,23.1-16.4c5.3-3.4,10.7-6.7,16.5-9.4
		c0.8-0.4,1-0.3,1.1,0.6c0.5,6,1.6,11.9,4.2,17.3c0.7,1.4,0.4,2.1-0.8,2.9c-4.9,2.9-9.6,6.2-14.5,9.3c-6,3.8-11.8,7.8-17.2,12.4
		c-2,1.7-3.9,3.4-5.6,5.3c-5.2,5.7-11.8,8.2-19.4,8.3c-0.6,0-1.3,0.1-1.9,0.2C388.1,74.1,387.4,74,386.8,74z"/>
</g>
</svg>
